<svg width="1280" height="720" xmlns="http://www.w3.org/2000/svg" xmlns:xlink="http://www.w3.org/1999/xlink" overflow="hidden"><defs><clipPath id="clip0"><rect x="0" y="0" width="1280" height="720"/></clipPath><clipPath id="clip1"><rect x="545" y="298" width="52" height="53"/></clipPath><clipPath id="clip2"><rect x="545" y="298" width="52" height="53"/></clipPath><clipPath id="clip3"><rect x="545" y="298" width="52" height="53"/></clipPath><clipPath id="clip4"><rect x="539" y="279" width="34" height="34"/></clipPath><clipPath id="clip5"><rect x="539" y="279" width="34" height="34"/></clipPath><clipPath id="clip6"><rect x="539" y="279" width="34" height="34"/></clipPath><clipPath id="clip7"><rect x="203" y="273" width="35" height="26"/></clipPath><clipPath id="clip8"><rect x="203" y="273" width="35" height="26"/></clipPath><clipPath id="clip9"><rect x="203" y="250" width="49" height="49"/></clipPath><clipPath id="clip10"><rect x="217" y="250" width="47" height="25"/></clipPath><clipPath id="clip11"><rect x="217" y="250" width="47" height="25"/></clipPath><clipPath id="clip12"><rect x="217" y="250" width="48" height="46"/></clipPath><clipPath id="clip13"><rect x="259" y="273" width="35" height="26"/></clipPath><clipPath id="clip14"><rect x="259" y="273" width="35" height="26"/></clipPath><clipPath id="clip15"><rect x="259" y="250" width="49" height="49"/></clipPath><clipPath id="clip16"><rect x="275" y="249" width="48" height="27"/></clipPath><clipPath id="clip17"><rect x="276" y="249" width="47" height="27"/></clipPath><clipPath id="clip18"><rect x="276" y="249" width="48" height="48"/></clipPath><clipPath id="clip19"><rect x="486" y="188" width="70" height="70"/></clipPath><clipPath id="clip20"><rect x="486" y="188" width="70" height="70"/></clipPath><clipPath id="clip21"><rect x="486" y="188" width="70" height="70"/></clipPath><clipPath id="clip22"><rect x="216" y="145" width="113" height="101"/></clipPath><clipPath id="clip23"><rect x="216" y="145" width="113" height="101"/></clipPath><clipPath id="clip24"><rect x="216" y="145" width="113" height="101"/></clipPath><clipPath id="clip25"><rect x="72" y="160" width="96" height="96"/></clipPath><clipPath id="clip26"><rect x="72" y="160" width="96" height="96"/></clipPath><clipPath id="clip27"><rect x="72" y="160" width="96" height="96"/></clipPath><clipPath id="clip28"><rect x="68" y="270" width="122" height="121"/></clipPath><clipPath id="clip29"><rect x="68" y="270" width="122" height="121"/></clipPath><clipPath id="clip30"><rect x="68" y="270" width="122" height="121"/></clipPath><clipPath id="clip31"><rect x="133" y="293" width="37" height="37"/></clipPath><clipPath id="clip32"><rect x="133" y="293" width="37" height="37"/></clipPath><clipPath id="clip33"><rect x="133" y="293" width="37" height="37"/></clipPath><clipPath id="clip34"><path d="M206.557 296.091 262.625 305.289 253.427 361.358 197.358 352.16Z" fill-rule="evenodd" clip-rule="evenodd"/></clipPath><clipPath id="clip35"><path d="M206.557 296.091 262.625 305.289 253.427 361.358 197.358 352.16Z" fill-rule="evenodd" clip-rule="evenodd"/></clipPath><clipPath id="clip36"><path d="M206.557 296.091 262.625 305.289 253.427 361.358 197.358 352.16Z" fill-rule="evenodd" clip-rule="evenodd"/></clipPath><clipPath id="clip37"><rect x="541" y="84" width="54" height="53"/></clipPath><clipPath id="clip38"><rect x="541" y="84" width="54" height="53"/></clipPath><clipPath id="clip39"><rect x="541" y="84" width="54" height="53"/></clipPath><clipPath id="clip40"><rect x="141" y="93" width="51" height="51"/></clipPath><clipPath id="clip41"><rect x="141" y="93" width="51" height="51"/></clipPath><clipPath id="clip42"><rect x="141" y="93" width="51" height="51"/></clipPath><clipPath id="clip43"><rect x="552" y="199" width="49" height="49"/></clipPath><clipPath id="clip44"><rect x="552" y="199" width="49" height="49"/></clipPath><clipPath id="clip45"><rect x="552" y="199" width="49" height="49"/></clipPath><clipPath id="clip46"><path d="M371.903 271.013 391.779 274.733 384.451 313.891 364.575 310.171Z" fill-rule="evenodd" clip-rule="evenodd"/></clipPath><clipPath id="clip47"><path d="M371.903 271.013 391.779 274.733 384.451 313.891 364.575 310.171Z" fill-rule="evenodd" clip-rule="evenodd"/></clipPath><clipPath id="clip48"><path d="M348.601 253.648 401.111 263.475 391.284 315.986 338.774 306.159Z" fill-rule="evenodd" clip-rule="evenodd"/></clipPath><clipPath id="clip49"><path d="M353.61 243.884 369.986 245.703 365.422 286.791 349.046 284.972Z" fill-rule="evenodd" clip-rule="evenodd"/></clipPath><clipPath id="clip50"><path d="M353.61 243.884 369.986 245.703 365.422 286.791 349.046 284.972Z" fill-rule="evenodd" clip-rule="evenodd"/></clipPath><clipPath id="clip51"><path d="M344.85 242.911 397.944 248.808 392.047 301.903 338.952 296.006Z" fill-rule="evenodd" clip-rule="evenodd"/></clipPath><clipPath id="clip52"><rect x="265" y="298" width="62" height="62"/></clipPath><clipPath id="clip53"><rect x="265" y="298" width="62" height="62"/></clipPath><clipPath id="clip54"><rect x="265" y="298" width="62" height="62"/></clipPath></defs><g clip-path="url(#clip0)"><rect x="0" y="0" width="1280" height="720" fill="#FFFFFF"/><rect x="331.5" y="136.5" width="122" height="92" stroke="#F8C77F" stroke-width="3" stroke-miterlimit="8" fill="#FEF3C2"/><path d="M148.167 72.5001 594.833 72.5001C600.724 72.5001 605.5 77.2757 605.5 83.1667L605.5 136.5 137.5 136.5 137.5 83.1667C137.5 77.2757 142.276 72.5001 148.167 72.5001Z" stroke="#F8C77F" stroke-width="3" stroke-miterlimit="8" fill="#FEF3C2" fill-rule="evenodd"/><path d="M0 0 57.0001 0C88.4804-9.42119e-15 114 25.5198 114 57.0001L114 148 0 148Z" stroke="#F8C77F" stroke-width="3" stroke-miterlimit="8" fill="#FEF3C2" fill-rule="evenodd" transform="matrix(1.83697e-16 1 1 -1.83697e-16 182.5 136.5)"/><path d="M182.5 136.5 182.5 217.991C182.5 245.334 160.334 267.5 132.991 267.5L68.5001 267.5 68.5001 136.5Z" stroke="#F8C77F" stroke-width="3" stroke-miterlimit="8" fill="#FEF3C2" fill-rule="evenodd"/><path d="M0 0 48.1535 0C71.817-8.52999e-15 91 19.183 91 42.8464L91 134 0 134Z" stroke="#F8C77F" stroke-width="3" stroke-miterlimit="8" fill="#FEF3C2" fill-rule="evenodd" transform="matrix(-1.83697e-16 -1 -1 1.83697e-16 202.5 359.5)"/><path d="M486.1 136.368C490.09 149.623 492.448 170.225 480.594 178.948 465.624 189.964 445.507 188.406 434.334 177.198 424.544 167.378 422.475 150.81 429.264 136.59L486.1 136.368Z" stroke="#F8C77F" stroke-width="3" stroke-miterlimit="8" fill="#FEF3C2" fill-rule="evenodd"/><path d="M0 0 18.1884 0 18.1884 23.9678 84 23.9678 84 41 0 41Z" stroke="#F8C77F" stroke-width="3" stroke-miterlimit="8" fill="#FEF3C2" fill-rule="evenodd" transform="matrix(-1 0 0 1 453.5 187.5)"/><path d="M344.5 167.667 344.5 207.333C344.5 208.53 343.53 209.5 342.333 209.5L331.5 209.5 331.5 165.5 342.333 165.5C343.53 165.5 344.5 166.47 344.5 167.667Z" stroke="#F8C77F" stroke-width="3" stroke-miterlimit="8" fill="#FEF3C2" fill-rule="evenodd"/><path d="M330.708 228.729 454.293 228.5C454.281 236.746 454.263 237.591 454.479 247.055L522.592 246.03C523.097 255.627 523.338 353.379 523.5 359.699 516.864 360.197 476.313 359.807 474.619 359.896 474.196 345.677 474.954 296.23 473.616 292.045 461.313 291.149 406.892 291.536 408.49 292.309 408.551 308.198 408.957 344.365 408.719 360.5 382.716 360.5 355.51 359.702 329.506 359.702 329.407 325.766 330.508 292.627 330.409 258.691 330.508 248.704 330.608 238.716 330.708 228.729Z" stroke="#F8C77F" stroke-width="3" stroke-miterlimit="8" fill="#FEF3C2" fill-rule="evenodd"/><rect x="199.5" y="296.5" width="62" height="63" stroke="#F8C77F" stroke-width="3" stroke-miterlimit="8" fill="#FEF3C2"/><rect x="261.5" y="296.5" width="69" height="63" stroke="#F8C77F" stroke-width="3" stroke-miterlimit="8" fill="#FEF3C2"/><rect x="520.5" y="265.5" width="85" height="94" stroke="#F8C77F" stroke-width="3" stroke-miterlimit="8" fill="#FEF3C2"/><path d="M487.04 136.5 605.5 136.5 605.5 246.5 454.5 246.102 454.822 186.999C453.779 185.831 502.189 195.001 487.04 136.5Z" stroke="#F8C77F" stroke-width="3" stroke-miterlimit="8" fill="#FEF3C2" fill-rule="evenodd"/><path d="M0 0 80.9851 0C83.2025 0 85 1.79754 85 4.01491L85 16.9999 0 16.9999Z" stroke="#F8C77F" stroke-width="3" stroke-miterlimit="8" fill="#FEF3C2" fill-rule="evenodd" transform="matrix(-1 0 0 1 605.5 247.5)"/><path d="M182.735 206.52C203.479 275.02 277.515 242.371 330.5 251.09L330.5 251.09 330.5 296.5 200.48 295.82C183.818 260.373 155.965 269.496 142.5 267.943 189.485 254.675 181.58 205.376 182.735 206.52Z" stroke="#F8C77F" stroke-width="3" stroke-miterlimit="8" fill="#FEF3C2" fill-rule="evenodd"/><path d="M381.5 360C381.5 313.332 407.691 275.5 440 275.5 472.309 275.5 498.5 313.332 498.5 360L469.25 360C469.25 329.486 456.154 304.75 440 304.75 423.846 304.75 410.75 329.486 410.75 360Z" stroke="#F8C77F" stroke-width="3" stroke-miterlimit="8" fill="#FEF3C2" fill-rule="evenodd"/><path d="M399.828 348.047 394.183 341.093 401.864 336.485Z" stroke="#F8C77F" stroke-width="3" stroke-miterlimit="8" fill="#FEF3C2" fill-rule="evenodd"/><path d="M406.747 320.522 402.667 312.548 411.137 309.634Z" stroke="#F8C77F" stroke-width="3" stroke-miterlimit="8" fill="#FEF3C2" fill-rule="evenodd"/><path d="M421.477 297.988 424.173 289.446 432.249 293.32Z" stroke="#F8C77F" stroke-width="3" stroke-miterlimit="8" fill="#FEF3C2" fill-rule="evenodd"/><path d="M450.824 293.96 457.884 288.447 462.346 296.214Z" stroke="#F8C77F" stroke-width="3" stroke-miterlimit="8" fill="#FEF3C2" fill-rule="evenodd"/><path d="M470.146 308.195 478.73 310.753 474.986 318.891Z" stroke="#F8C77F" stroke-width="3" stroke-miterlimit="8" fill="#FEF3C2" fill-rule="evenodd"/><path d="M479.798 333.368 487.706 337.574 482.427 344.81Z" stroke="#F8C77F" stroke-width="3" stroke-miterlimit="8" fill="#FEF3C2" fill-rule="evenodd"/><g clip-path="url(#clip1)"><g clip-path="url(#clip2)"><g clip-path="url(#clip3)"><path d="M47.2572 5.14583C47.1984 5.07242 47.1355 5.00243 47.0687 4.93621 46.0143 3.88442 44.3076 3.88442 43.2532 4.93621 43.1856 5.00237 43.122 5.07236 43.0625 5.14583L38.7833 10.4352 37.8782 9.52954C37.0321 8.68373 35.6606 8.68373 34.8145 9.52954L9.53333 34.8091C8.6872 35.6553 8.68714 37.0271 9.53328 37.8733 9.53328 37.8733 9.53333 37.8733 9.53333 37.8733L10.4385 38.7785 5.14583 43.0625C3.99017 44.0004 3.81228 45.697 4.74825 46.8542 4.80724 46.9274 4.87016 46.9974 4.93675 47.0638 5.98959 48.1174 7.69719 48.118 8.75084 47.0652 8.75128 47.0648 8.75176 47.0643 8.75225 47.0638 8.81888 46.9972 8.88198 46.9273 8.94129 46.8542L13.2242 41.5632 14.1294 42.4688C14.9755 43.3146 16.347 43.3146 17.193 42.4688L42.4705 17.1903C43.3148 16.3437 43.3148 14.9733 42.4705 14.1267L41.5664 13.2215 46.8585 8.9375C48.0148 8.00009 48.1932 6.30321 47.2572 5.14583ZM8.10063 46.1722C8.06488 46.2161 8.02642 46.2589 7.98633 46.2995 7.34733 46.9117 6.3395 46.9117 5.7005 46.2995 5.66215 46.2603 5.62597 46.2191 5.59217 46.176 5.03117 45.4833 5.13787 44.467 5.8305 43.9059L11.2103 39.5503 12.4562 40.7962ZM41.7045 14.8926C42.1275 15.3156 42.1275 16.0014 41.7045 16.4244L16.4271 41.7045C16.0041 42.1275 15.3183 42.1275 14.8953 41.7045L13.1398 39.9474 13.1398 39.9474 12.0564 38.864 12.0564 38.864 10.2998 37.1085C9.87664 36.6855 9.87648 35.9996 10.2995 35.5765 10.2996 35.5763 10.2997 35.5762 10.2998 35.5761L35.5794 10.2965C36.0024 9.87361 36.6882 9.87361 37.1112 10.2965L38.8667 12.0537 38.8667 12.0537 40.3141 13.5005ZM46.7664 7.00971C46.7222 7.43492 46.51 7.82486 46.1771 8.09304L40.7967 12.448 39.5509 11.2022 43.9064 5.82183C44.4648 5.12915 45.4789 5.02023 46.1716 5.57857 46.2172 5.61535 46.2608 5.65462 46.3022 5.69617 46.342 5.73582 46.3794 5.7778 46.4143 5.82183 46.6865 6.15447 46.8133 6.58255 46.7664 7.00971Z" stroke="#F8C77F" stroke-width="0.541667" fill="#F8C77F" transform="matrix(1 0 0 1.01923 545 298)"/></g></g></g><g clip-path="url(#clip4)"><g clip-path="url(#clip5)"><g clip-path="url(#clip6)"><path d="M563.01 286.958C562.247 286.959 561.493 287.132 560.806 287.465 560.148 285.37 558.202 283.949 556.007 283.958 555.853 283.958 555.697 283.966 555.543 283.98 553.527 284.164 551.818 285.537 551.201 287.465 548.698 286.247 545.682 287.289 544.464 289.792 543.246 292.295 544.288 295.311 546.791 296.529 547.163 296.71 547.556 296.844 547.96 296.929L547.96 308.042 564.044 308.042 564.044 296.929C566.767 296.355 568.51 293.681 567.935 290.958 567.444 288.629 565.391 286.961 563.01 286.958ZM563.336 307.333 548.669 307.333 548.669 304.5 563.336 304.5ZM563.336 296.334C563.04 296.355 562.744 296.361 562.448 296.351 562.254 296.347 562.091 296.498 562.081 296.692 562.073 296.887 562.226 297.051 562.421 297.059 562.454 297.059 562.588 297.065 562.765 297.065 562.932 297.065 563.138 297.06 563.336 297.044L563.336 303.792 548.669 303.792 548.669 297.044C548.866 297.059 549.071 297.065 549.239 297.065 549.416 297.065 549.55 297.06 549.583 297.059 549.778 297.052 549.931 296.887 549.924 296.691 549.916 296.496 549.752 296.343 549.556 296.351 549.261 296.36 548.965 296.355 548.671 296.334 546.28 296.154 544.489 294.07 544.669 291.68 544.85 289.29 546.934 287.498 549.324 287.679 550.187 287.744 551.011 288.066 551.69 288.603 551.881 286.524 553.528 284.876 555.608 284.685 555.742 284.673 555.875 284.667 556.007 284.667 558.245 284.669 560.112 286.376 560.316 288.604 561.081 287.997 562.03 287.666 563.007 287.666L563.011 287.666C565.408 287.675 567.345 289.625 567.336 292.022 567.328 294.282 565.589 296.157 563.337 296.334Z" stroke="#F8C77F" stroke-width="0.354167" fill="#F8C77F"/></g></g></g><g clip-path="url(#clip7)"><g clip-path="url(#clip8)"><g clip-path="url(#clip9)"><path d="M21.7809 4.45518C21.7809 5.82213 20.7835 6.93027 19.5533 6.93027 18.323 6.93027 17.3257 5.82213 17.3257 4.45518 17.3257 3.08822 18.323 1.98008 19.5533 1.98008 20.7835 1.98008 21.7809 3.08822 21.7809 4.45518Z" stroke="#F8C77F" stroke-width="0.495069" fill="#F8C77F" transform="matrix(6.14582e-17 1.00369 -1 6.12323e-17 251.522 250.303)"/><path d="M16.3356 5.44521C16.3356 6.26539 15.7816 6.93027 15.0981 6.93027 14.4146 6.93027 13.8605 6.26539 13.8605 5.44521 13.8605 4.62504 14.4146 3.96016 15.0981 3.96016 15.7816 3.96016 16.3356 4.62504 16.3356 5.44521Z" stroke="#F8C77F" stroke-width="0.495069" fill="#F8C77F" transform="matrix(6.14582e-17 1.00369 -1 6.12323e-17 251.522 250.303)"/><path d="M13.3655 7.17778C13.3655 7.86126 12.9223 8.41533 12.3755 8.41533 11.8287 8.41533 11.3854 7.86126 11.3854 7.17778 11.3854 6.4943 11.8287 5.94023 12.3755 5.94023 12.9223 5.94023 13.3655 6.4943 13.3655 7.17778Z" stroke="#F8C77F" stroke-width="0.495069" fill="#F8C77F" transform="matrix(6.14582e-17 1.00369 -1 6.12323e-17 251.522 250.303)"/><path d="M11.3854 9.40537C11.3854 9.95216 11.053 10.3954 10.6429 10.3954 10.2328 10.3954 9.90039 9.95216 9.90039 9.40537 9.90039 8.85859 10.2328 8.41533 10.6429 8.41533 11.053 8.41533 11.3854 8.85859 11.3854 9.40537Z" stroke="#F8C77F" stroke-width="0.495069" fill="#F8C77F" transform="matrix(6.14582e-17 1.00369 -1 6.12323e-17 251.522 250.303)"/><path d="M9.90039 11.3854C9.90039 11.9322 9.56795 12.3755 9.15786 12.3755 8.74777 12.3755 8.41533 11.9322 8.41533 11.3854 8.41533 10.8387 8.74777 10.3954 9.15786 10.3954 9.56795 10.3954 9.90039 10.8387 9.90039 11.3854Z" stroke="#F8C77F" stroke-width="0.495069" fill="#F8C77F" transform="matrix(6.14582e-17 1.00369 -1 6.12323e-17 251.522 250.303)"/><path d="M16.8307 8.41533C13.9596 8.41533 8.91035 12.623 8.91035 15.8406 8.91035 20.3948 10.8904 20.8403 10.8904 24.256 10.8904 27.6716 8.95985 34.1563 15.3456 34.1563 22.6719 34.1563 18.3157 25.345 18.3157 23.2659 18.3157 17.7217 21.2858 16.0881 21.2858 11.8805 21.2858 9.10836 19.7018 8.41533 16.8307 8.41533Z" stroke="#F8C77F" stroke-width="0.495069" fill="#F8C77F" transform="matrix(6.14582e-17 1.00369 -1 6.12323e-17 251.522 250.303)"/><path d="M30.1962 15.8406C30.1962 17.2076 29.1989 18.3157 27.9686 18.3157 26.7383 18.3157 25.741 17.2076 25.741 15.8406 25.741 14.4737 26.7383 13.3655 27.9686 13.3655 29.1989 13.3655 30.1962 14.4737 30.1962 15.8406Z" stroke="#F8C77F" stroke-width="0.495069" fill="#F8C77F" transform="matrix(6.14582e-17 1.00369 -1 6.12323e-17 251.522 250.303)"/><path d="M33.6613 16.8307C33.6613 17.6508 33.1073 18.3157 32.4238 18.3157 31.7403 18.3157 31.1862 17.6508 31.1862 16.8307 31.1862 16.0105 31.7403 15.3456 32.4238 15.3456 33.1073 15.3456 33.6613 16.0105 33.6613 16.8307Z" stroke="#F8C77F" stroke-width="0.495069" fill="#F8C77F" transform="matrix(6.14582e-17 1.00369 -1 6.12323e-17 251.522 250.303)"/><path d="M36.1364 18.5632C36.1364 19.2467 35.6932 19.8008 35.1464 19.8008 34.5996 19.8008 34.1563 19.2467 34.1563 18.5632 34.1563 17.8798 34.5996 17.3257 35.1464 17.3257 35.6932 17.3257 36.1364 17.8798 36.1364 18.5632Z" stroke="#F8C77F" stroke-width="0.495069" fill="#F8C77F" transform="matrix(6.14582e-17 1.00369 -1 6.12323e-17 251.522 250.303)"/><path d="M37.6215 20.7908C37.6215 21.3376 37.289 21.7809 36.879 21.7809 36.4689 21.7809 36.1364 21.3376 36.1364 20.7908 36.1364 20.244 36.4689 19.8008 36.879 19.8008 37.289 19.8008 37.6215 20.244 37.6215 20.7908Z" stroke="#F8C77F" stroke-width="0.495069" fill="#F8C77F" transform="matrix(6.14582e-17 1.00369 -1 6.12323e-17 251.522 250.303)"/><path d="M39.1065 22.7709C39.1065 23.3177 38.7741 23.7609 38.364 23.7609 37.9539 23.7609 37.6215 23.3177 37.6215 22.7709 37.6215 22.2241 37.9539 21.7809 38.364 21.7809 38.7741 21.7809 39.1065 22.2241 39.1065 22.7709Z" stroke="#F8C77F" stroke-width="0.495069" fill="#F8C77F" transform="matrix(6.14582e-17 1.00369 -1 6.12323e-17 251.522 250.303)"/><path d="M30.6912 19.8008C27.8201 19.8008 26.236 20.4938 26.236 23.2659 26.236 27.4736 29.2062 29.1071 29.2062 34.6514 29.2062 36.7304 24.85 45.5418 32.1763 45.5418 38.562 45.5418 36.6314 39.057 36.6314 35.6414 36.6314 32.2258 38.6115 31.7803 38.6115 27.2261 38.6115 24.0084 33.5623 19.8008 30.6912 19.8008Z" stroke="#F8C77F" stroke-width="0.495069" fill="#F8C77F" transform="matrix(6.14582e-17 1.00369 -1 6.12323e-17 251.522 250.303)"/></g></g></g><g clip-path="url(#clip10)"><g clip-path="url(#clip11)"><g clip-path="url(#clip12)"><path d="M20.9948 4.29439C20.9948 5.61202 20.0335 6.68016 18.8476 6.68016 17.6617 6.68016 16.7004 5.61202 16.7004 4.29439 16.7004 2.97677 17.6617 1.90862 18.8476 1.90862 20.0335 1.90862 20.9948 2.97677 20.9948 4.29439Z" stroke="#F8C77F" stroke-width="0.477202" fill="#F8C77F" transform="matrix(6.12323e-17 1 -1.02605 6.28273e-17 264.001 250)"/><path d="M15.7461 5.2487C15.7461 6.03928 15.212 6.68016 14.5532 6.68016 13.8944 6.68016 13.3603 6.03928 13.3603 5.2487 13.3603 4.45813 13.8944 3.81724 14.5532 3.81724 15.212 3.81724 15.7461 4.45813 15.7461 5.2487Z" stroke="#F8C77F" stroke-width="0.477202" fill="#F8C77F" transform="matrix(6.12323e-17 1 -1.02605 6.28273e-17 264.001 250)"/><path d="M12.8832 6.91874C12.8832 7.57755 12.4559 8.11163 11.9289 8.11163 11.4018 8.11163 10.9746 7.57755 10.9746 6.91874 10.9746 6.25993 11.4018 5.72586 11.9289 5.72586 12.4559 5.72586 12.8832 6.25993 12.8832 6.91874Z" stroke="#F8C77F" stroke-width="0.477202" fill="#F8C77F" transform="matrix(6.12323e-17 1 -1.02605 6.28273e-17 264.001 250)"/><path d="M10.9746 9.06594C10.9746 9.59299 10.6541 10.0202 10.2588 10.0202 9.86354 10.0202 9.54309 9.59299 9.54309 9.06594 9.54309 8.53889 9.86354 8.11163 10.2588 8.11163 10.6541 8.11163 10.9746 8.53889 10.9746 9.06594Z" stroke="#F8C77F" stroke-width="0.477202" fill="#F8C77F" transform="matrix(6.12323e-17 1 -1.02605 6.28273e-17 264.001 250)"/><path d="M9.54309 10.9746C9.54309 11.5016 9.22265 11.9289 8.82736 11.9289 8.43207 11.9289 8.11163 11.5016 8.11163 10.9746 8.11163 10.4475 8.43207 10.0202 8.82736 10.0202 9.22265 10.0202 9.54309 10.4475 9.54309 10.9746Z" stroke="#F8C77F" stroke-width="0.477202" fill="#F8C77F" transform="matrix(6.12323e-17 1 -1.02605 6.28273e-17 264.001 250)"/><path d="M16.2233 8.11163C13.4558 8.11163 8.58878 12.1674 8.58878 15.2689 8.58878 19.6588 10.4974 20.0882 10.4974 23.3806 10.4974 26.6729 8.6365 32.9237 14.7918 32.9237 21.8537 32.9237 17.6547 24.4303 17.6547 22.4263 17.6547 17.0821 20.5176 15.5075 20.5176 11.4517 20.5176 8.77964 18.9908 8.11163 16.2233 8.11163Z" stroke="#F8C77F" stroke-width="0.477202" fill="#F8C77F" transform="matrix(6.12323e-17 1 -1.02605 6.28273e-17 264.001 250)"/><path d="M29.1064 15.2689C29.1064 16.5866 28.1451 17.6547 26.9592 17.6547 25.7734 17.6547 24.812 16.5866 24.812 15.2689 24.812 13.9513 25.7734 12.8832 26.9592 12.8832 28.1451 12.8832 29.1064 13.9513 29.1064 15.2689Z" stroke="#F8C77F" stroke-width="0.477202" fill="#F8C77F" transform="matrix(6.12323e-17 1 -1.02605 6.28273e-17 264.001 250)"/><path d="M32.4465 16.2233C32.4465 17.0138 31.9124 17.6547 31.2536 17.6547 30.5948 17.6547 30.0607 17.0138 30.0607 16.2233 30.0607 15.4327 30.5948 14.7918 31.2536 14.7918 31.9124 14.7918 32.4465 15.4327 32.4465 16.2233Z" stroke="#F8C77F" stroke-width="0.477202" fill="#F8C77F" transform="matrix(6.12323e-17 1 -1.02605 6.28273e-17 264.001 250)"/><path d="M34.8323 17.8933C34.8323 18.5521 34.405 19.0862 33.878 19.0862 33.3509 19.0862 32.9237 18.5521 32.9237 17.8933 32.9237 17.2345 33.3509 16.7004 33.878 16.7004 34.405 16.7004 34.8323 17.2345 34.8323 17.8933Z" stroke="#F8C77F" stroke-width="0.477202" fill="#F8C77F" transform="matrix(6.12323e-17 1 -1.02605 6.28273e-17 264.001 250)"/><path d="M36.2638 20.0405C36.2638 20.5675 35.9433 20.9948 35.548 20.9948 35.1527 20.9948 34.8323 20.5675 34.8323 20.0405 34.8323 19.5134 35.1527 19.0862 35.548 19.0862 35.9433 19.0862 36.2638 19.5134 36.2638 20.0405Z" stroke="#F8C77F" stroke-width="0.477202" fill="#F8C77F" transform="matrix(6.12323e-17 1 -1.02605 6.28273e-17 264.001 250)"/><path d="M37.6952 21.9491C37.6952 22.4762 37.3748 22.9034 36.9795 22.9034 36.5842 22.9034 36.2638 22.4762 36.2638 21.9491 36.2638 21.4221 36.5842 20.9948 36.9795 20.9948 37.3748 20.9948 37.6952 21.4221 37.6952 21.9491Z" stroke="#F8C77F" stroke-width="0.477202" fill="#F8C77F" transform="matrix(6.12323e-17 1 -1.02605 6.28273e-17 264.001 250)"/><path d="M29.5836 19.0862C26.8161 19.0862 25.2892 19.7542 25.2892 22.4263 25.2892 26.4821 28.1521 28.0567 28.1521 33.4008 28.1521 35.4049 23.9532 43.8982 31.015 43.8982 37.1703 43.8982 35.3094 37.6475 35.3094 34.3551 35.3094 31.0628 37.2181 30.6333 37.2181 26.2435 37.2181 23.142 32.3511 19.0862 29.5836 19.0862Z" stroke="#F8C77F" stroke-width="0.477202" fill="#F8C77F" transform="matrix(6.12323e-17 1 -1.02605 6.28273e-17 264.001 250)"/></g></g></g><g clip-path="url(#clip13)"><g clip-path="url(#clip14)"><g clip-path="url(#clip15)"><path d="M21.7809 4.45518C21.7809 5.82213 20.7835 6.93027 19.5533 6.93027 18.323 6.93027 17.3257 5.82213 17.3257 4.45518 17.3257 3.08822 18.323 1.98008 19.5533 1.98008 20.7835 1.98008 21.7809 3.08822 21.7809 4.45518Z" stroke="#F8C77F" stroke-width="0.495069" fill="#F8C77F" transform="matrix(6.14582e-17 1.00369 -1 6.12323e-17 307.522 250.303)"/><path d="M16.3356 5.44521C16.3356 6.26539 15.7816 6.93027 15.0981 6.93027 14.4146 6.93027 13.8605 6.26539 13.8605 5.44521 13.8605 4.62504 14.4146 3.96016 15.0981 3.96016 15.7816 3.96016 16.3356 4.62504 16.3356 5.44521Z" stroke="#F8C77F" stroke-width="0.495069" fill="#F8C77F" transform="matrix(6.14582e-17 1.00369 -1 6.12323e-17 307.522 250.303)"/><path d="M13.3655 7.17778C13.3655 7.86126 12.9223 8.41533 12.3755 8.41533 11.8287 8.41533 11.3854 7.86126 11.3854 7.17778 11.3854 6.4943 11.8287 5.94023 12.3755 5.94023 12.9223 5.94023 13.3655 6.4943 13.3655 7.17778Z" stroke="#F8C77F" stroke-width="0.495069" fill="#F8C77F" transform="matrix(6.14582e-17 1.00369 -1 6.12323e-17 307.522 250.303)"/><path d="M11.3854 9.40537C11.3854 9.95216 11.053 10.3954 10.6429 10.3954 10.2328 10.3954 9.90039 9.95216 9.90039 9.40537 9.90039 8.85859 10.2328 8.41533 10.6429 8.41533 11.053 8.41533 11.3854 8.85859 11.3854 9.40537Z" stroke="#F8C77F" stroke-width="0.495069" fill="#F8C77F" transform="matrix(6.14582e-17 1.00369 -1 6.12323e-17 307.522 250.303)"/><path d="M9.90039 11.3854C9.90039 11.9322 9.56795 12.3755 9.15786 12.3755 8.74777 12.3755 8.41533 11.9322 8.41533 11.3854 8.41533 10.8387 8.74777 10.3954 9.15786 10.3954 9.56795 10.3954 9.90039 10.8387 9.90039 11.3854Z" stroke="#F8C77F" stroke-width="0.495069" fill="#F8C77F" transform="matrix(6.14582e-17 1.00369 -1 6.12323e-17 307.522 250.303)"/><path d="M16.8307 8.41533C13.9596 8.41533 8.91035 12.623 8.91035 15.8406 8.91035 20.3948 10.8904 20.8403 10.8904 24.256 10.8904 27.6716 8.95985 34.1563 15.3456 34.1563 22.6719 34.1563 18.3157 25.345 18.3157 23.2659 18.3157 17.7217 21.2858 16.0881 21.2858 11.8805 21.2858 9.10836 19.7018 8.41533 16.8307 8.41533Z" stroke="#F8C77F" stroke-width="0.495069" fill="#F8C77F" transform="matrix(6.14582e-17 1.00369 -1 6.12323e-17 307.522 250.303)"/><path d="M30.1962 15.8406C30.1962 17.2076 29.1989 18.3157 27.9686 18.3157 26.7383 18.3157 25.741 17.2076 25.741 15.8406 25.741 14.4737 26.7383 13.3655 27.9686 13.3655 29.1989 13.3655 30.1962 14.4737 30.1962 15.8406Z" stroke="#F8C77F" stroke-width="0.495069" fill="#F8C77F" transform="matrix(6.14582e-17 1.00369 -1 6.12323e-17 307.522 250.303)"/><path d="M33.6613 16.8307C33.6613 17.6508 33.1073 18.3157 32.4238 18.3157 31.7403 18.3157 31.1862 17.6508 31.1862 16.8307 31.1862 16.0105 31.7403 15.3456 32.4238 15.3456 33.1073 15.3456 33.6613 16.0105 33.6613 16.8307Z" stroke="#F8C77F" stroke-width="0.495069" fill="#F8C77F" transform="matrix(6.14582e-17 1.00369 -1 6.12323e-17 307.522 250.303)"/><path d="M36.1364 18.5632C36.1364 19.2467 35.6932 19.8008 35.1464 19.8008 34.5996 19.8008 34.1563 19.2467 34.1563 18.5632 34.1563 17.8798 34.5996 17.3257 35.1464 17.3257 35.6932 17.3257 36.1364 17.8798 36.1364 18.5632Z" stroke="#F8C77F" stroke-width="0.495069" fill="#F8C77F" transform="matrix(6.14582e-17 1.00369 -1 6.12323e-17 307.522 250.303)"/><path d="M37.6215 20.7908C37.6215 21.3376 37.289 21.7809 36.879 21.7809 36.4689 21.7809 36.1364 21.3376 36.1364 20.7908 36.1364 20.244 36.4689 19.8008 36.879 19.8008 37.289 19.8008 37.6215 20.244 37.6215 20.7908Z" stroke="#F8C77F" stroke-width="0.495069" fill="#F8C77F" transform="matrix(6.14582e-17 1.00369 -1 6.12323e-17 307.522 250.303)"/><path d="M39.1065 22.7709C39.1065 23.3177 38.7741 23.7609 38.364 23.7609 37.9539 23.7609 37.6215 23.3177 37.6215 22.7709 37.6215 22.2241 37.9539 21.7809 38.364 21.7809 38.7741 21.7809 39.1065 22.2241 39.1065 22.7709Z" stroke="#F8C77F" stroke-width="0.495069" fill="#F8C77F" transform="matrix(6.14582e-17 1.00369 -1 6.12323e-17 307.522 250.303)"/><path d="M30.6912 19.8008C27.8201 19.8008 26.236 20.4938 26.236 23.2659 26.236 27.4736 29.2062 29.1071 29.2062 34.6514 29.2062 36.7304 24.85 45.5418 32.1763 45.5418 38.562 45.5418 36.6314 39.057 36.6314 35.6414 36.6314 32.2258 38.6115 31.7803 38.6115 27.2261 38.6115 24.0084 33.5623 19.8008 30.6912 19.8008Z" stroke="#F8C77F" stroke-width="0.495069" fill="#F8C77F" transform="matrix(6.14582e-17 1.00369 -1 6.12323e-17 307.522 250.303)"/></g></g></g><g clip-path="url(#clip16)"><g clip-path="url(#clip17)"><g clip-path="url(#clip18)"><path d="M21.5417 4.40625C21.5417 5.7582 20.5553 6.85417 19.3385 6.85417 18.1218 6.85417 17.1354 5.7582 17.1354 4.40625 17.1354 3.0543 18.1218 1.95833 19.3385 1.95833 20.5553 1.95833 21.5417 3.0543 21.5417 4.40625Z" stroke="#F8C77F" stroke-width="0.489632" fill="#F8C77F" transform="matrix(6.2065e-17 1.0136 -1 6.12323e-17 323.001 249)"/><path d="M16.1563 5.38542C16.1563 6.19659 15.6083 6.85417 14.9323 6.85417 14.2563 6.85417 13.7083 6.19659 13.7083 5.38542 13.7083 4.57425 14.2563 3.91667 14.9323 3.91667 15.6083 3.91667 16.1563 4.57425 16.1563 5.38542Z" stroke="#F8C77F" stroke-width="0.489632" fill="#F8C77F" transform="matrix(6.2065e-17 1.0136 -1 6.12323e-17 323.001 249)"/><path d="M13.2188 7.09896C13.2188 7.77493 12.7804 8.32292 12.2396 8.32292 11.6988 8.32292 11.2604 7.77493 11.2604 7.09896 11.2604 6.42299 11.6988 5.875 12.2396 5.875 12.7804 5.875 13.2188 6.42299 13.2188 7.09896Z" stroke="#F8C77F" stroke-width="0.489632" fill="#F8C77F" transform="matrix(6.2065e-17 1.0136 -1 6.12323e-17 323.001 249)"/><path d="M11.2604 9.30208C11.2604 9.84286 10.9316 10.2813 10.526 10.2813 10.1205 10.2813 9.79167 9.84286 9.79167 9.30208 9.79167 8.7613 10.1205 8.32292 10.526 8.32292 10.9316 8.32292 11.2604 8.7613 11.2604 9.30208Z" stroke="#F8C77F" stroke-width="0.489632" fill="#F8C77F" transform="matrix(6.2065e-17 1.0136 -1 6.12323e-17 323.001 249)"/><path d="M9.79167 11.2604C9.79167 11.8012 9.46288 12.2396 9.05729 12.2396 8.65171 12.2396 8.32292 11.8012 8.32292 11.2604 8.32292 10.7196 8.65171 10.2813 9.05729 10.2813 9.46288 10.2813 9.79167 10.7196 9.79167 11.2604Z" stroke="#F8C77F" stroke-width="0.489632" fill="#F8C77F" transform="matrix(6.2065e-17 1.0136 -1 6.12323e-17 323.001 249)"/><path d="M16.6458 8.32292C13.8063 8.32292 8.8125 12.4844 8.8125 15.6667 8.8125 20.1708 10.7708 20.6115 10.7708 23.9896 10.7708 27.3677 8.86146 33.7813 15.1771 33.7813 22.4229 33.7813 18.1146 25.0667 18.1146 23.0104 18.1146 17.5271 21.0521 15.9115 21.0521 11.75 21.0521 9.00833 19.4854 8.32292 16.6458 8.32292Z" stroke="#F8C77F" stroke-width="0.489632" fill="#F8C77F" transform="matrix(6.2065e-17 1.0136 -1 6.12323e-17 323.001 249)"/><path d="M29.8646 15.6667C29.8646 17.0186 28.8782 18.1146 27.6615 18.1146 26.4447 18.1146 25.4583 17.0186 25.4583 15.6667 25.4583 14.3147 26.4447 13.2188 27.6615 13.2188 28.8782 13.2188 29.8646 14.3147 29.8646 15.6667Z" stroke="#F8C77F" stroke-width="0.489632" fill="#F8C77F" transform="matrix(6.2065e-17 1.0136 -1 6.12323e-17 323.001 249)"/><path d="M33.2917 16.6458C33.2917 17.457 32.7437 18.1146 32.0677 18.1146 31.3917 18.1146 30.8438 17.457 30.8438 16.6458 30.8438 15.8347 31.3917 15.1771 32.0677 15.1771 32.7437 15.1771 33.2917 15.8347 33.2917 16.6458Z" stroke="#F8C77F" stroke-width="0.489632" fill="#F8C77F" transform="matrix(6.2065e-17 1.0136 -1 6.12323e-17 323.001 249)"/><path d="M35.7396 18.3594C35.7396 19.0353 35.3012 19.5833 34.7604 19.5833 34.2196 19.5833 33.7813 19.0353 33.7813 18.3594 33.7813 17.6834 34.2196 17.1354 34.7604 17.1354 35.3012 17.1354 35.7396 17.6834 35.7396 18.3594Z" stroke="#F8C77F" stroke-width="0.489632" fill="#F8C77F" transform="matrix(6.2065e-17 1.0136 -1 6.12323e-17 323.001 249)"/><path d="M37.2083 20.5625C37.2083 21.1033 36.8795 21.5417 36.474 21.5417 36.0684 21.5417 35.7396 21.1033 35.7396 20.5625 35.7396 20.0217 36.0684 19.5833 36.474 19.5833 36.8795 19.5833 37.2083 20.0217 37.2083 20.5625Z" stroke="#F8C77F" stroke-width="0.489632" fill="#F8C77F" transform="matrix(6.2065e-17 1.0136 -1 6.12323e-17 323.001 249)"/><path d="M38.6771 22.5208C38.6771 23.0616 38.3483 23.5 37.9427 23.5 37.5371 23.5 37.2083 23.0616 37.2083 22.5208 37.2083 21.9801 37.5371 21.5417 37.9427 21.5417 38.3483 21.5417 38.6771 21.9801 38.6771 22.5208Z" stroke="#F8C77F" stroke-width="0.489632" fill="#F8C77F" transform="matrix(6.2065e-17 1.0136 -1 6.12323e-17 323.001 249)"/><path d="M30.3542 19.5833C27.5146 19.5833 25.9479 20.2688 25.9479 23.0104 25.9479 27.1719 28.8854 28.7875 28.8854 34.2708 28.8854 36.3271 24.5771 45.0417 31.8229 45.0417 38.1385 45.0417 36.2292 38.6281 36.2292 35.25 36.2292 31.8719 38.1875 31.4312 38.1875 26.9271 38.1875 23.7448 33.1938 19.5833 30.3542 19.5833Z" stroke="#F8C77F" stroke-width="0.489632" fill="#F8C77F" transform="matrix(6.2065e-17 1.0136 -1 6.12323e-17 323.001 249)"/></g></g></g><g clip-path="url(#clip19)"><g clip-path="url(#clip20)"><g clip-path="url(#clip21)"><path d="M534.581 231.202 532.667 220.417C532.36 218.734 530.891 217.514 529.181 217.523L504.035 219.625 503.905 219.636C503.777 219.647 503.613 219.66 503.596 219.662L503.094 219.709C498.115 220.292 494.55 224.8 495.133 229.78 495.312 231.311 495.878 232.772 496.778 234.024 496.993 234.364 497.444 234.465 497.784 234.25 498.124 234.034 498.225 233.584 498.01 233.243 497.994 233.219 497.977 233.195 497.958 233.172 495.502 229.755 496.281 224.994 499.698 222.538 500.748 221.784 501.972 221.309 503.256 221.158L509.33 220.648 509.33 231.277 508.075 229.027 507.729 228.396C506.842 226.879 505.224 225.938 503.467 225.917 500.761 225.914 498.564 228.106 498.562 230.813 498.56 232.095 499.062 233.327 499.959 234.244L501.385 235.661 495.811 235.661C493.871 235.661 492.298 237.234 492.298 239.174 492.298 241.115 493.871 242.688 495.811 242.688L509.731 242.688C511.67 242.685 513.242 241.114 513.245 239.174 513.249 238.486 513.046 237.811 512.661 237.24L511.761 235.63 527.405 230.998 527.853 233.521C527.979 234.23 528.319 234.883 528.829 235.391L535.096 241.658C536.452 243.047 538.677 243.074 540.066 241.719 541.455 240.363 541.483 238.138 540.127 236.749 540.107 236.728 540.087 236.708 540.066 236.688ZM509.634 241.229 495.892 241.229C494.891 241.247 494.016 240.56 493.796 239.584 493.571 238.47 494.293 237.384 495.407 237.16 495.54 237.133 495.675 237.12 495.811 237.12L504.75 237.12C504.79 237.119 504.823 237.087 504.822 237.046 504.822 237.027 504.815 237.009 504.801 236.995L500.998 233.222C499.671 231.861 499.698 229.681 501.059 228.353 501.703 227.725 502.567 227.374 503.467 227.375 504.701 227.403 505.834 228.064 506.465 229.125L510.522 236.433 511.425 238.014C511.757 238.495 511.867 239.096 511.728 239.664 511.471 240.604 510.608 241.25 509.634 241.229ZM539.035 240.627C538.222 241.404 536.941 241.404 536.127 240.627L529.86 234.356C529.562 234.059 529.363 233.677 529.289 233.262L529.009 231.685C529.009 231.665 529.014 231.646 529.009 231.627L528.28 227.252C528.226 226.853 527.859 226.573 527.46 226.627 527.06 226.681 526.781 227.049 526.835 227.448 526.837 227.462 526.839 227.477 526.842 227.491L527.183 229.538 511.033 234.325 510.792 233.892 510.792 220.521 528.27 219.047 529.223 218.974C530.211 218.983 531.054 219.694 531.228 220.667L533.225 231.904 539.035 237.714C539.838 238.517 539.838 239.819 539.035 240.622Z" stroke="#F8C77F" stroke-width="0.729167" fill="#F8C77F"/><path d="M541.052 204.042C536.018 204.042 531.938 208.122 531.938 213.156 531.938 218.19 536.018 222.271 541.052 222.271 546.086 222.271 550.167 218.19 550.167 213.156 550.161 208.125 546.084 204.047 541.052 204.042ZM541.052 220.813C536.824 220.813 533.396 217.385 533.396 213.156 533.396 208.928 536.824 205.5 541.052 205.5 545.281 205.5 548.708 208.928 548.708 213.156 548.703 217.383 545.279 220.808 541.052 220.813Z" stroke="#F8C77F" stroke-width="0.729167" fill="#F8C77F"/></g></g></g><g clip-path="url(#clip22)"><g clip-path="url(#clip23)"><g clip-path="url(#clip24)"><path d="M48.0623 29.3279C48.5713 29.6078 49.2109 29.4222 49.4911 28.9134 51.6238 25.0386 55.56 22.4941 59.9688 22.14L59.9688 30.5104C59.9688 31.0915 60.4398 31.5625 61.0208 31.5625 61.6019 31.5625 62.0729 31.0915 62.0729 30.5104L62.0729 22.14C66.4817 22.4941 70.4178 25.0386 72.5506 28.9134 72.8395 29.4175 73.4823 29.5921 73.9865 29.3032 74.4783 29.0213 74.6585 28.4005 74.3939 27.8991 70.3398 20.5134 61.066 17.8126 53.6803 21.8666 51.1367 23.2628 49.044 25.3555 47.6478 27.8991 47.3678 28.4081 47.5534 29.0477 48.0623 29.3279Z" stroke="#F8C77F" stroke-width="1.05208" fill="#F8C77F" transform="matrix(1.11881 0 0 1 216 145)"/><path d="M74.6979 12.625 59.9688 12.625 59.9688 16.8333C59.9688 17.4144 60.4398 17.8854 61.0208 17.8854 61.6019 17.8854 62.0729 17.4144 62.0729 16.8333L62.0729 14.7292 74.6979 14.7292C81.6674 14.7367 87.3153 20.3847 87.3229 27.3542L87.3229 28.4063C87.3229 28.9873 87.7939 29.4583 88.375 29.4583 88.9561 29.4583 89.4271 28.9873 89.4271 28.4063L89.4271 27.3542C89.4184 19.223 82.829 12.6337 74.6979 12.625Z" stroke="#F8C77F" stroke-width="1.05208" fill="#F8C77F" transform="matrix(1.11881 0 0 1 216 145)"/><path d="M46.8177 38.9271C48.8514 38.9271 50.5 37.2785 50.5 35.2448 50.5 33.2111 48.8514 31.5625 46.8177 31.5625 44.784 31.5625 43.1354 33.2111 43.1354 35.2448 43.1354 37.2785 44.784 38.9271 46.8177 38.9271ZM46.8177 33.6667C47.6893 33.6667 48.3958 34.3732 48.3958 35.2448 48.3958 36.1163 47.6893 36.8229 46.8177 36.8229 45.9462 36.8229 45.2396 36.1163 45.2396 35.2448 45.2396 34.3732 45.9462 33.6667 46.8177 33.6667Z" stroke="#F8C77F" stroke-width="1.05208" fill="#F8C77F" transform="matrix(1.11881 0 0 1 216 145)"/><path d="M71.5417 37.875 77.8542 37.875 77.8542 31.5625 71.5417 31.5625ZM73.6458 33.6667 75.75 33.6667 75.75 35.7708 73.6458 35.7708Z" stroke="#F8C77F" stroke-width="1.05208" fill="#F8C77F" transform="matrix(1.11881 0 0 1 216 145)"/><path d="M55.9708 42.0833 66.0708 42.0833 61.0208 33.6667ZM59.6868 39.9792 61.0208 37.7561 62.3549 39.9792Z" stroke="#F8C77F" stroke-width="1.05208" fill="#F8C77F" transform="matrix(1.11881 0 0 1 216 145)"/><path d="M88.375 31.5625C87.7939 31.5625 87.3229 32.0335 87.3229 32.6146L87.3229 48.3958 13.6771 48.3958 13.6771 32.6146C13.6771 32.0335 13.2061 31.5625 12.625 31.5625 12.0439 31.5625 11.5729 32.0335 11.5729 32.6146L11.5729 87.3229C11.5729 87.904 12.0439 88.375 12.625 88.375 13.2061 88.375 13.6771 87.904 13.6771 87.3229L13.6771 77.8689C38.0437 73.6409 62.9564 73.6409 87.3229 77.8689L87.3229 87.3229C87.3229 87.904 87.7939 88.375 88.375 88.375 88.9561 88.375 89.4271 87.904 89.4271 87.3229L89.4271 32.6146C89.4271 32.0335 88.9561 31.5625 88.375 31.5625ZM38.9271 50.5 49.4479 50.5 49.4479 72.6001C45.976 72.618 42.4516 72.7221 38.9271 72.9073ZM36.8229 73.0293C33.2721 73.2492 29.7424 73.548 26.3021 73.9246L26.3021 50.5 36.8229 50.5ZM51.5521 50.5 62.0729 50.5 62.0729 72.9094C58.5484 72.7242 55.024 72.6201 51.5521 72.6022ZM64.1771 50.5 74.6979 50.5 74.6979 73.9246C71.2576 73.548 67.7279 73.2492 64.1771 73.0293ZM13.6771 50.5 24.1979 50.5 24.1979 74.1719C20.5398 74.6095 17.0069 75.1335 13.6771 75.7353ZM76.8021 74.1719 76.8021 50.5 87.3229 50.5 87.3229 75.73C83.9931 75.1282 80.4602 74.6043 76.8021 74.1719Z" stroke="#F8C77F" stroke-width="1.05208" fill="#F8C77F" transform="matrix(1.11881 0 0 1 216 145)"/></g></g></g><g clip-path="url(#clip25)"><g clip-path="url(#clip26)"><g clip-path="url(#clip27)"><path d="M96 203C96 199.686 93.3137 197 90 197 86.6863 197 84 199.686 84 203 84 206.314 86.6863 209 90 209 93.3121 208.996 95.9961 206.312 96 203ZM90 207C87.7909 207 86 205.209 86 203 86 200.791 87.7909 199 90 199 92.2091 199 94 200.791 94 203 94 205.209 92.2091 207 90 207Z" stroke="#F8C77F" fill="#F8C77F"/><path d="M80 221 112 221 112 222C112.003 224.76 114.24 226.997 117 227L160 227 160 232 162 232 162 204C161.997 201.24 159.76 199.003 157 199L107 199C101.48 199.006 97.0061 203.48 97 209L80 209 80 186C80 185.448 79.5523 185 79 185 78.4477 185 78 185.448 78 186L78 232 80 232ZM114 221 114 201 157 201C158.657 201 160 202.343 160 204L160 225 117 225C115.343 225 114 223.657 114 222ZM107 201 112 201 112 209 99 209C99.005 204.584 102.584 201.005 107 201ZM80 211 112 211 112 219 80 219Z" stroke="#F8C77F" fill="#F8C77F"/></g></g></g><g clip-path="url(#clip28)"><g clip-path="url(#clip29)"><g clip-path="url(#clip30)"><path d="M109.656 51.6771 28.9896 51.6771 28.9896 45.249C28.9931 41.8395 31.7561 39.0764 35.1656 39.0729L35.4177 39.0729C38.8273 39.0764 41.5902 41.8394 41.5938 45.249 41.5938 45.9451 42.158 46.5094 42.8542 46.5094 43.5503 46.5094 44.1146 45.9451 44.1146 45.249 44.1097 40.4478 40.2189 36.557 35.4177 36.5521L35.1656 36.5521C30.3644 36.557 26.4737 40.4478 26.4688 45.249L26.4688 51.6771 11.3438 51.6771C10.6476 51.6771 10.0833 52.2414 10.0833 52.9375 10.0833 53.6336 10.6476 54.1979 11.3438 54.1979L16.7081 54.1979 20.2284 65.9324C21.8852 71.5344 26.0556 76.0459 31.5104 78.137L31.5104 84.4479C31.5104 85.144 32.0747 85.7083 32.7708 85.7083 33.467 85.7083 34.0313 85.144 34.0313 84.4479L34.0313 78.9109C35.4435 79.238 36.8884 79.4042 38.3381 79.4063L82.0115 79.4063C83.6868 79.4026 85.3539 79.175 86.9688 78.7294L86.9688 84.4479C86.9688 85.144 87.533 85.7083 88.2292 85.7083 88.9253 85.7083 89.4896 85.144 89.4896 84.4479L89.4896 78.1458C89.4818 78.0537 89.4636 77.9628 89.4354 77.8748 94.317 75.7925 98.0987 71.7543 99.8565 66.7466L104.249 54.1979 109.656 54.1979C110.352 54.1979 110.917 53.6336 110.917 52.9375 110.917 52.2414 110.352 51.6771 109.656 51.6771ZM97.4768 65.9122C95.1724 72.481 88.9728 76.8799 82.0115 76.8854L38.3381 76.8854C31.0911 76.9194 24.6937 72.16 22.6434 65.2089L19.3398 54.1979 101.577 54.1979Z" stroke="#F8C77F" stroke-width="1.26037" fill="#F8C77F" transform="matrix(1.00826 0 0 1 68 270)"/></g></g></g><g clip-path="url(#clip31)"><g clip-path="url(#clip32)"><g clip-path="url(#clip33)"><path d="M163.795 307.299C163.824 307.068 163.837 306.835 163.833 306.603 163.896 302.771 160.841 299.615 157.01 299.552 153.178 299.49 150.022 302.545 149.959 306.376 149.959 306.414 149.958 306.452 149.958 306.49 149.953 308.129 150.54 309.714 151.611 310.955 151.614 310.958 151.613 310.961 151.609 310.961 149.613 311.22 147.843 312.16 145.44 312.16 143.532 312.16 141.224 311.567 138.087 309.573 137.968 309.498 137.83 309.458 137.689 309.459 137.334 309.453 137.021 309.691 136.931 310.035 135.775 314.159 135.621 316.51 137.586 319.401 140.361 323.409 143.329 323.448 150.922 323.448L151.601 323.448C158.738 323.448 162.253 323.376 162.253 318.592 162.253 316.009 161.675 314.005 160.018 312.695 160.922 312.214 161.701 311.528 162.292 310.691 163.758 310.562 165.128 309.905 166.146 308.841 166.463 308.501 166.722 308.112 166.914 307.689 166.915 307.687 166.914 307.685 166.912 307.684 166.912 307.684 166.912 307.684 166.911 307.684ZM159.673 312.005 159.447 312.118C159.161 312.262 158.86 312.375 158.551 312.456L158.231 312.54C158.031 312.587 157.9 312.778 157.926 312.982 157.957 313.168 158.118 313.304 158.306 313.304 158.339 313.304 158.372 313.3 158.404 313.292L159.249 313.07 159.54 313.299C160.883 314.362 161.482 315.994 161.482 318.592 161.482 322.491 159.108 322.677 151.601 322.677L151.267 322.677 150.922 322.677C143.55 322.677 140.792 322.677 138.224 318.968 136.461 316.376 136.578 314.246 137.581 310.577 137.609 310.475 137.669 310.26 137.677 310.23 137.678 310.227 137.681 310.228 137.683 310.229 140.583 312.072 143.048 312.93 145.44 312.93 146.811 312.894 148.17 312.66 149.475 312.237 150.209 312.013 150.957 311.842 151.714 311.725L153.136 311.542C153.14 311.541 153.141 311.538 153.138 311.535L152.197 310.454C149.996 307.872 150.305 303.994 152.887 301.793 153.777 301.034 154.864 300.545 156.022 300.384 159.398 299.905 162.523 302.254 163.001 305.63 163.042 305.915 163.062 306.202 163.063 306.49 163.068 306.723 163.058 306.958 163.032 307.19L163.012 307.328C162.567 307.516 162.201 307.855 161.978 308.284 161.606 308.902 161.337 309.796 161.548 310.41 161.041 311.067 160.402 311.61 159.673 312.005ZM162.989 308.242C163.152 308.094 163.372 308.025 163.591 308.052L163.7 308.064 165.588 308.296C165.591 308.297 165.592 308.299 165.592 308.301 165.592 308.301 165.591 308.302 165.591 308.303 165.575 308.321 165.523 308.379 165.5 308.403 164.623 309.274 163.469 309.81 162.239 309.919 162.266 309.48 162.404 309.054 162.639 308.682 162.734 308.519 162.852 308.371 162.989 308.242Z" stroke="#F8C77F" stroke-width="0.385407" fill="#F8C77F"/><path d="M160.325 304.177C159.803 304.168 159.372 304.584 159.363 305.107 159.362 305.118 159.362 305.129 159.363 305.14 159.361 305.671 159.789 306.102 160.32 306.104 160.322 306.104 160.324 306.104 160.327 306.104 160.849 306.113 161.28 305.697 161.29 305.175 161.29 305.164 161.29 305.152 161.29 305.141 161.291 304.61 160.863 304.179 160.332 304.177 160.33 304.177 160.328 304.177 160.325 304.177Z" stroke="#F8C77F" stroke-width="0.385407" fill="#F8C77F"/></g></g></g><g clip-path="url(#clip34)"><g clip-path="url(#clip35)"><g clip-path="url(#clip36)"><path d="M246.388 325.663C246.92 325.011 247.379 324.302 247.755 323.548L250.535 322.685 251.014 319.765 248.655 318.058C248.571 317.228 248.383 316.411 248.094 315.627L249.479 313.036 247.722 310.588 244.823 311.072C244.173 310.547 243.46 310.105 242.7 309.758L241.836 306.977 238.916 306.498 237.21 308.857C236.379 308.941 235.562 309.129 234.779 309.418L232.187 308.033 229.739 309.791 230.224 312.689C229.7 313.339 229.261 314.053 228.915 314.813L226.135 315.677 225.656 318.597 228.015 320.303C228.099 321.134 228.288 321.951 228.576 322.735L227.191 325.326 228.9 327.706 231.798 327.222C232.448 327.745 233.162 328.185 233.922 328.53L234.786 331.31 237.706 331.79 239.412 329.431C240.243 329.346 241.06 329.158 241.844 328.87L244.435 330.255 246.873 328.555ZM245.22 325.858 245.582 328.02 244.352 328.876 242.4 327.833 241.924 327.578 241.419 327.771C240.728 328.025 240.007 328.19 239.275 328.262L238.758 328.323 238.452 328.745 237.174 330.514 235.699 330.272 235.053 328.187 234.899 327.69 234.428 327.467C233.756 327.165 233.126 326.778 232.552 326.317L232.136 325.973 231.603 326.062 229.431 326.425 228.582 325.242 229.62 323.299 229.875 322.823 229.681 322.319C229.429 321.627 229.265 320.906 229.194 320.174L229.133 319.656 228.712 319.351 226.941 318.072 227.184 316.595 229.269 315.951 229.765 315.796 229.988 315.325C230.289 314.654 230.675 314.023 231.135 313.449L231.479 313.032 231.39 312.5 231.027 310.327 232.278 309.429 234.22 310.467 234.696 310.725 235.201 310.531C235.892 310.279 236.612 310.115 237.345 310.043L237.866 309.975 238.171 309.553 239.45 307.784 240.926 308.026 241.572 310.111 241.727 310.609 242.197 310.831C242.868 311.132 243.499 311.518 244.073 311.978L244.49 312.323 245.023 312.231 247.194 311.867 248.093 313.118 247.054 315.061 246.8 315.537 246.993 316.042C247.246 316.734 247.411 317.454 247.484 318.187L247.543 318.704 247.965 319.01 249.735 320.288 249.492 321.766 247.407 322.412 246.924 322.562 246.698 323.016C246.362 323.689 245.953 324.324 245.478 324.908L245.134 325.324Z" stroke="#F8C77F" stroke-width="0.591801" fill="#F8C77F"/><path d="M209.455 334.723 208.976 337.643 211.335 339.35C211.42 340.18 211.608 340.997 211.896 341.781L210.57 344.382 212.279 346.762 215.167 346.336C215.818 346.859 216.532 347.299 217.292 347.644L218.155 350.425 221.075 350.904 222.782 348.545C223.613 348.46 224.429 348.272 225.213 347.984L227.805 349.369 230.194 347.601 229.759 344.771C230.282 344.121 230.721 343.407 231.067 342.647L233.847 341.783 234.326 338.863 231.967 337.156C231.883 336.326 231.695 335.509 231.407 334.725L232.791 332.134 231.034 329.686 228.135 330.17C227.478 329.656 226.766 329.217 226.011 328.862L225.148 326.082 222.227 325.602 220.521 327.961C219.69 328.046 218.873 328.234 218.09 328.522L215.498 327.137 213.118 328.846 213.544 331.735C213.03 332.392 212.591 333.105 212.236 333.86ZM213.071 334.836 213.297 334.383C213.614 333.71 214.003 333.074 214.458 332.485L214.793 332.079 214.716 331.558 214.396 329.382 215.591 328.523 217.533 329.562 218.009 329.817 218.514 329.623C219.205 329.37 219.926 329.205 220.659 329.133L221.177 329.078 221.483 328.656 222.761 326.887 224.237 327.129 224.883 329.214 225.034 329.698 225.487 329.923C226.16 330.24 226.796 330.629 227.384 331.084L227.801 331.428 228.334 331.339 230.505 330.975 231.403 332.227 230.365 334.169 230.11 334.645 230.303 335.15C230.557 335.842 230.722 336.563 230.794 337.296L230.854 337.812 231.276 338.118 233.04 339.393 232.798 340.87 230.712 341.517 230.215 341.671 229.993 342.142C229.691 342.813 229.304 343.444 228.843 344.018L228.504 344.427 228.585 344.952 228.912 347.077 227.704 347.975 225.774 346.943 225.297 346.688 224.792 346.881C224.101 347.135 223.379 347.3 222.646 347.372L222.128 347.432 221.823 347.854 220.545 349.624 219.069 349.382 218.423 347.296 218.268 346.799 217.797 346.577C217.126 346.274 216.496 345.888 215.922 345.426L215.516 345.091 214.995 345.167 212.82 345.488 211.952 344.28 212.951 342.32 213.19 341.851 213.002 341.359C212.749 340.668 212.584 339.947 212.512 339.214L212.451 338.697 212.03 338.392 210.26 337.113 210.503 335.636 212.588 334.99Z" stroke="#F8C77F" stroke-width="0.591801" fill="#F8C77F"/><path d="M239.054 314.801C236.634 314.404 234.351 316.043 233.955 318.463 233.558 320.882 235.197 323.165 237.616 323.562 240.036 323.958 242.318 322.319 242.715 319.9 243.093 317.485 241.462 315.215 239.054 314.801ZM237.808 322.393C236.035 322.1 234.834 320.428 235.123 318.654 235.436 316.894 237.094 315.703 238.862 315.969 240.634 316.262 241.835 317.935 241.547 319.708 241.236 321.47 239.577 322.662 237.808 322.396Z" stroke="#F8C77F" stroke-width="0.591801" fill="#F8C77F"/><path d="M220.928 342.664C223.347 343.061 225.63 341.422 226.027 339.003 226.424 336.583 224.784 334.301 222.365 333.904 219.946 333.507 217.663 335.146 217.266 337.565 216.867 339.981 218.501 342.263 220.917 342.663 220.921 342.663 220.924 342.664 220.928 342.664ZM222.174 335.069C223.948 335.36 225.15 337.034 224.859 338.808 224.568 340.582 222.894 341.784 221.12 341.493 219.346 341.202 218.143 339.528 218.435 337.754 218.728 335.982 220.4 334.781 222.174 335.069Z" stroke="#F8C77F" stroke-width="0.591801" fill="#F8C77F"/></g></g></g><g clip-path="url(#clip37)"><g clip-path="url(#clip38)"><g clip-path="url(#clip39)"><path d="M42.1648 33.6771 42.1648 30.9167C42.1017 29.4013 40.8657 28.1993 39.3492 28.1783L34.8171 28.1745C37.863 25.4141 39.9924 22.0463 40.614 18.9342L40.7399 18.2999 40.0912 18.274C37.9743 18.2481 35.8756 18.6671 33.931 19.504 35.4482 17.5348 36.4805 15.2362 36.9443 12.794L37.0448 12.1823 36.4254 12.153C34.5918 12.1448 32.7907 12.6363 31.2153 13.5746 32.2775 11.8073 32.9755 9.84536 33.268 7.80425L33.342 7.21959 32.754 7.18371C31.4489 7.1031 30.0052 7.72088 28.6217 8.91007 28.575 6.95465 27.9129 5.06374 26.7297 3.50628L26.3101 3.01437 25.8905 3.50628C24.7077 5.06379 24.0457 6.95437 23.9985 8.90952 22.6183 7.72033 21.1741 7.10366 19.8662 7.18371L19.2782 7.21959 19.3516 7.80425C19.6448 9.84585 20.3431 11.8083 21.4054 13.5763 19.8293 12.639 18.0284 12.1471 16.1948 12.153L15.5754 12.1823 15.6759 12.794C16.142 15.2373 17.1761 17.5368 18.6946 19.5068 16.7487 18.6679 14.6479 18.2479 12.529 18.274L11.8825 18.2983 12.0084 18.9326C12.6261 22.0408 14.7489 25.4025 17.7859 28.1585L13.2268 28.1562C11.703 28.1581 10.4682 29.3929 10.4664 30.9167L10.4664 33.6771 12.8006 33.6771 15.3849 48.007C15.6141 49.2904 16.7251 50.2285 18.0288 50.2396L34.5969 50.2396C35.8981 50.2265 37.0061 49.2896 37.2353 48.0086L39.83 33.6771ZM33.1211 28.1734 29.1616 28.1695C28.5452 27.2021 27.8487 26.2883 27.0791 25.4378 27.7258 24.7801 28.4118 24.1623 29.1334 23.5878 32.4034 21.0068 36.1769 19.4642 39.3751 19.3754 38.5641 22.3931 36.2719 25.62 33.1211 28.1734ZM31.4605 20.6993C30.6513 21.1567 29.8699 21.6614 29.1202 22.2109 28.5645 20.9202 27.8583 19.6998 27.0162 18.5748 27.481 18.0019 27.98 17.4576 28.5107 16.9451 30.8217 14.7368 33.4684 13.3963 35.7281 13.261 35.001 16.0794 33.5266 18.6492 31.4605 20.6993ZM32.0711 8.31769C31.6064 10.6491 30.5902 12.8354 29.1075 14.6937 28.8531 15.0077 28.583 15.3086 28.2981 15.5952 27.9546 14.5477 27.5053 13.5379 26.9571 12.5814 27.2444 12.1213 27.5577 11.678 27.8957 11.2537 29.245 9.57865 30.7604 8.52306 32.0711 8.31769ZM26.3101 4.79319C27.1558 6.25168 27.5824 7.91527 27.5429 9.60073 27.5429 9.72881 27.5379 9.85414 27.5335 9.98001 27.3679 10.1666 27.2022 10.3582 27.0366 10.5614 26.7832 10.876 26.5431 11.2106 26.3106 11.5551 26.0788 11.2134 25.8392 10.8799 25.5846 10.5614 25.419 10.3582 25.2534 10.1666 25.0878 9.98001 25.0834 9.85414 25.0784 9.72881 25.0784 9.60073 25.0386 7.91538 25.4648 6.25179 26.3101 4.79319ZM23.5127 14.6937C22.0299 12.8354 21.0138 10.6491 20.5491 8.31769 21.8592 8.52306 23.3752 9.57865 24.7239 11.2537 25.9582 12.8041 26.8726 14.5839 27.4142 16.4902 27.0322 16.874 26.6669 17.2737 26.3184 17.6893 25.8649 17.1489 25.3821 16.6339 24.8719 16.1468 24.735 16.0159 24.5959 15.8895 24.4567 15.7647L24.4689 15.752C24.1295 15.4185 23.8102 15.0651 23.5127 14.6937ZM16.8937 13.261C19.1534 13.3963 21.8007 14.7373 24.1111 16.9451 25.8805 18.625 27.2774 20.6576 28.2115 22.9115 27.547 23.4487 26.9117 24.0211 26.3084 24.6262 25.6339 23.9482 24.9195 23.3111 24.1691 22.7182 23.2816 22.0177 22.3446 21.382 21.3656 20.8163 21.2497 20.7495 21.1244 20.6623 21.1244 20.6623 19.0777 18.6179 17.6168 16.062 16.8937 13.261ZM13.245 19.3781C16.4432 19.467 20.2167 21.0101 23.4867 23.5905 25.1549 24.8956 26.6214 26.4397 27.8388 28.1728L19.4852 28.1618C16.3417 25.6106 14.0549 22.3881 13.245 19.3781ZM11.5706 30.9167C11.5706 30.0019 12.3121 29.2604 13.2268 29.2604L39.3404 29.2825C40.2607 29.295 41.0133 30.0196 41.0606 30.9387L41.0606 32.5729 11.5706 32.5729ZM36.1482 47.8137C36.0141 48.5711 35.3604 49.126 34.5913 49.1354L18.0344 49.1354C17.2624 49.1273 16.6058 48.5706 16.4714 47.8104L13.9224 33.6771 38.711 33.6771Z" stroke="#F8C77F" stroke-width="0.552083" fill="#F8C77F" transform="matrix(1.01887 0 0 1 541 84)"/></g></g></g><g clip-path="url(#clip40)"><g clip-path="url(#clip41)"><g clip-path="url(#clip42)"><path d="M184.477 107.875 187.134 107.875C186.357 106.876 185.437 105.997 184.403 105.267 183.781 103.189 181.87 101.766 179.702 101.766 176.264 101.766 172.939 105.777 171.51 108.433 164.584 109.873 158.447 113.852 154.308 119.589L145.988 127.919C145.713 128.195 145.713 128.643 145.989 128.918 146.121 129.051 146.301 129.125 146.488 129.125L149.298 129.125 149.298 131.935C149.298 132.326 149.615 132.642 150.005 132.641 150.192 132.641 150.372 132.567 150.504 132.435L157.272 125.667C159.583 126.83 162.124 127.463 164.71 127.521L164.71 131.239C164.123 131.239 163.647 131.715 163.647 132.302 163.647 132.889 164.123 133.364 164.71 133.364L165.347 133.364 167.153 135.171C167.543 135.581 168.192 135.598 168.603 135.209 168.616 135.196 168.629 135.184 168.641 135.171 169.052 134.781 169.069 134.132 168.679 133.721 168.667 133.708 168.654 133.695 168.641 133.683L168.322 133.364 169.491 133.364C170.078 133.364 170.553 132.889 170.553 132.302 170.553 131.715 170.078 131.239 169.491 131.239L166.835 131.239 166.835 127.446C167.549 127.378 168.259 127.267 168.96 127.112L168.96 129.125C168.373 129.125 167.897 129.601 167.897 130.188L169.491 130.188C170.665 130.19 171.614 131.143 171.612 132.317 171.611 132.588 171.558 132.858 171.457 133.109 171.65 133.274 171.894 133.367 172.147 133.375 172.427 133.371 172.695 133.256 172.891 133.056 173.302 132.666 173.319 132.018 172.929 131.607 172.917 131.594 172.904 131.581 172.891 131.569L172.572 131.25 173.741 131.25C174.328 131.25 174.803 130.774 174.803 130.188 174.803 129.601 174.328 129.125 173.741 129.125L171.085 129.125 171.085 126.501C177.84 124.067 182.433 117.766 182.682 110.59 183.572 109.916 184.206 108.958 184.477 107.875Z" stroke="#F8C77F" stroke-width="0.53125" fill="#F8C77F"/></g></g></g><g clip-path="url(#clip43)"><g clip-path="url(#clip44)"><g clip-path="url(#clip45)"><path d="M586.153 233.621C586.997 231.504 587.188 229.183 586.7 226.957 587.415 226.748 588.078 226.528 588.644 226.303 590.615 225.537 591.592 223.319 590.826 221.348 590.061 219.378 587.843 218.4 585.872 219.166 585.87 219.167 585.868 219.167 585.866 219.168L585.8 219.195C585.192 219.413 584.577 219.609 583.955 219.784 583.687 219.859 583.416 219.917 583.143 219.967 585.07 218.282 586.183 215.852 586.198 213.292 586.198 213.076 586.179 212.864 586.164 212.652L586.422 212.515C588.952 211.27 589.993 208.21 588.748 205.681 587.503 203.152 584.444 202.111 581.914 203.356 581.238 203.689 580.644 204.167 580.175 204.756L580.158 204.788C577.806 203.877 575.199 203.877 572.846 204.788L572.83 204.758C571.074 202.552 567.863 202.188 565.658 203.944 563.452 205.7 563.088 208.911 564.844 211.116 565.313 211.705 565.907 212.183 566.582 212.516L566.837 212.651C566.822 212.863 566.803 213.076 566.803 213.293 566.818 215.852 567.93 218.281 569.856 219.966 569.587 219.915 569.319 219.859 569.056 219.785 568.434 219.611 567.818 219.414 567.209 219.196 565.239 218.428 563.02 219.402 562.252 221.372 561.494 223.316 562.433 225.509 564.362 226.303 564.924 226.528 565.594 226.748 566.306 226.957 565.811 229.203 566.009 231.546 566.875 233.676L564.033 235.3C561.762 236.559 560.847 239.356 561.933 241.714 563.102 244.123 566.003 245.128 568.412 243.958 568.51 243.911 568.606 243.86 568.7 243.806L574.961 240.229C575.981 240.406 577.025 240.406 578.045 240.229L584.161 243.722C584.937 244.165 585.815 244.398 586.708 244.397 589.368 244.426 591.547 242.294 591.576 239.634 591.595 237.874 590.652 236.244 589.117 235.383L586.132 233.677ZM585.132 209.121C584.644 208.22 584.011 207.406 583.257 206.712L583.278 206.699C583.965 206.209 584.918 206.368 585.408 207.054 585.842 207.662 585.772 208.495 585.243 209.023ZM584.162 203.863C585.088 203.86 585.987 204.176 586.708 204.756 588.468 206.16 588.757 208.723 587.353 210.483 586.992 210.936 586.538 211.307 586.022 211.571 585.918 211.065 585.77 210.57 585.578 210.09L585.936 209.775C586.947 208.798 586.975 207.185 585.998 206.173 585.127 205.272 583.729 205.138 582.703 205.858L582.418 206.03C582.01 205.727 581.579 205.457 581.128 205.221 581.899 204.356 583.003 203.862 584.162 203.862ZM565.659 210.492C564.253 208.732 564.538 206.165 566.297 204.756 567.983 203.404 570.433 203.606 571.876 205.216 571.425 205.452 570.993 205.723 570.585 206.026L570.32 205.867C569.292 205.142 567.889 205.27 567.01 206.17 566.032 207.181 566.059 208.794 567.071 209.772 567.076 209.777 567.081 209.782 567.087 209.788L567.423 210.084C567.232 210.563 567.083 211.059 566.979 211.564 566.469 211.303 566.019 210.938 565.659 210.492ZM567.78 209.04C567.174 208.459 567.154 207.496 567.735 206.891 568.022 206.591 568.42 206.422 568.835 206.423 569.161 206.424 569.478 206.525 569.745 206.712 568.992 207.406 568.358 208.22 567.87 209.12ZM567.823 213.292C567.823 208.789 571.715 205.125 576.5 205.125 581.285 205.125 585.177 208.789 585.177 213.292 585.177 217.795 581.285 221.458 576.5 221.458 571.715 221.458 567.823 217.795 567.823 213.292ZM567.81 233.263C567.028 231.332 566.851 229.209 567.303 227.175L567.387 226.793 567.664 225.796C567.742 225.525 567.586 225.242 567.315 225.164 567.044 225.086 566.761 225.242 566.683 225.512 566.682 225.516 566.681 225.519 566.68 225.523L566.557 225.964C565.83 225.75 565.219 225.544 564.742 225.352 563.302 224.775 562.603 223.141 563.179 221.702 563.755 220.263 565.389 219.563 566.829 220.139L566.845 220.146 566.863 220.152C567.492 220.378 568.139 220.584 568.779 220.765 569.67 221.009 570.588 221.14 571.512 221.153 574.603 222.918 578.398 222.918 581.489 221.153 582.416 221.141 583.337 221.01 584.23 220.765 584.873 220.585 585.517 220.379 586.145 220.152L586.165 220.145 586.185 220.137 586.236 220.116C587.682 219.556 589.308 220.273 589.869 221.719 590.429 223.164 589.712 224.791 588.266 225.351 587.771 225.548 587.163 225.753 586.464 225.959L586.343 225.522C586.267 225.25 585.986 225.091 585.714 225.166 585.443 225.242 585.283 225.523 585.359 225.795L585.554 226.497 585.703 227.174C586.157 229.217 585.976 231.351 585.186 233.289L585.056 233.609 584.652 234.519C584.532 234.774 584.641 235.078 584.896 235.199 585.151 235.319 585.455 235.21 585.575 234.955 585.579 234.948 585.582 234.94 585.585 234.933L585.725 234.617 588.611 236.266C590.442 237.285 591.101 239.596 590.081 241.427 589.402 242.649 588.106 243.398 586.708 243.377 585.992 243.377 585.289 243.19 584.667 242.836L579.452 239.855C579.76 239.73 580.053 239.573 580.328 239.387 580.566 239.235 580.635 238.919 580.484 238.682 580.332 238.444 580.016 238.375 579.779 238.526 579.771 238.532 579.763 238.537 579.755 238.542 579.257 238.875 578.692 239.093 578.1 239.181L577.87 239.221C576.966 239.378 576.04 239.378 575.136 239.221L575.005 239.198 574.924 239.185C574.332 239.096 573.766 238.876 573.268 238.542 573.039 238.378 572.72 238.429 572.555 238.658 572.391 238.887 572.442 239.206 572.671 239.371 572.679 239.376 572.687 239.382 572.695 239.387 572.967 239.571 573.258 239.727 573.563 239.851L568.194 242.918C566.359 243.967 564.02 243.33 562.971 241.494 562.928 241.42 562.888 241.343 562.85 241.266 561.992 239.392 562.73 237.174 564.539 236.187L567.295 234.612 567.439 234.936C567.52 235.12 567.703 235.239 567.905 235.24 567.975 235.239 568.045 235.224 568.109 235.196 568.366 235.081 568.483 234.78 568.369 234.522Z" stroke="#F8C77F" stroke-width="0.510417" fill="#F8C77F"/><path d="M573.441 212.54C573.441 213.104 572.984 213.561 572.42 213.561 571.856 213.561 571.399 213.104 571.399 212.54 571.399 211.977 571.856 211.52 572.42 211.52 572.984 211.52 573.441 211.977 573.441 212.54Z" stroke="#F8C77F" stroke-width="0.510417" fill="#F8C77F"/><path d="M576.503 220.197C578.672 220.197 580.436 218.594 580.436 216.624 580.436 214.653 578.672 213.051 576.503 213.051 574.334 213.051 572.57 214.654 572.57 216.624 572.57 218.593 574.334 220.197 576.503 220.197ZM576.503 214.072C578.109 214.072 579.416 215.216 579.416 216.624 579.416 218.031 578.109 219.176 576.503 219.176 574.897 219.176 573.591 218.031 573.591 216.624 573.591 215.216 574.897 214.072 576.503 214.072Z" stroke="#F8C77F" stroke-width="0.510417" fill="#F8C77F"/><path d="M581.607 212.54C581.607 213.104 581.15 213.561 580.586 213.561 580.023 213.561 579.566 213.104 579.566 212.54 579.566 211.977 580.023 211.52 580.586 211.52 581.15 211.52 581.607 211.977 581.607 212.54Z" stroke="#F8C77F" stroke-width="0.510417" fill="#F8C77F"/><path d="M576.503 216.879C577.071 216.829 577.49 216.328 577.44 215.76 577.39 215.192 576.889 214.773 576.321 214.823 575.789 214.87 575.38 215.316 575.38 215.851 575.408 216.444 575.91 216.903 576.503 216.879Z" stroke="#F8C77F" stroke-width="0.510417" fill="#F8C77F"/></g></g></g><g clip-path="url(#clip46)"><g clip-path="url(#clip47)"><g clip-path="url(#clip48)"><path d="M22.6401 33.0456C22.4987 31.3605 22.1803 29.6948 21.6902 28.0763L21.5517 27.6512 12.1623 28.5543 12.1183 29.0107C11.9828 30.6773 11.9828 32.3522 12.1183 34.0189L12.2257 35.089C12.2889 36.1281 12.7824 37.0939 13.5874 37.754 14.7495 38.6567 16.2156 39.0754 17.6792 38.9226L18.756 38.8152C21.1534 38.6211 22.9402 36.5212 22.7481 34.1235ZM18.6563 37.7067 17.5657 37.818C16.4014 37.9418 15.234 37.6141 14.3042 36.9026 13.7257 36.4332 13.3734 35.7406 13.3348 34.9966L13.2268 33.9182C13.1141 32.4739 13.1025 31.0236 13.1918 29.5777L20.7598 28.8498C21.149 30.2564 21.4083 31.6957 21.5344 33.1497L21.6424 34.227C21.756 36.005 20.4309 37.5491 18.6563 37.7067Z" stroke="#F8C77F" stroke-width="0.556474" fill="#F8C77F" transform="matrix(0.982936 0.183947 -0.183949 0.982947 348.601 253.648)"/><path d="M17.3514 2.2259C14.5791 2.2259 12.2113 3.87751 11.0076 6.67268 8.92083 12.3971 9.0989 19.4771 11.4967 26.0975L11.6425 26.4993 21.3797 25.6534 21.3341 25.1009C21.1076 22.3619 22.0208 20.2306 22.9879 17.9735 24.4537 14.5501 25.9701 11.0109 22.9518 5.5575 21.6769 3.2832 19.8973 2.2259 17.3514 2.2259ZM21.9646 17.5345C21.0475 19.6752 20.101 21.885 20.1933 24.6384L12.4027 25.3162C10.228 19.0548 10.0978 12.4222 12.0432 7.08391 13.0666 4.70387 15.0025 3.33884 17.3514 3.33884 19.3111 3.23656 21.1389 4.32637 21.9807 6.09895 24.7325 11.0738 23.388 14.2118 21.9646 17.5345Z" stroke="#F8C77F" stroke-width="0.556474" fill="#F8C77F" transform="matrix(0.982936 0.183947 -0.183949 0.982947 348.601 253.648)"/><path d="M41.2592 40.7968 31.8698 39.8942 31.7313 40.3193C31.2419 41.9344 30.9237 43.5964 30.7819 45.278L30.6706 46.3782C30.4829 48.7681 32.263 50.86 34.6522 51.057L35.7379 51.165C35.934 51.1856 36.1311 51.1958 36.3283 51.1956 37.5999 51.2086 38.8375 50.7847 39.8341 49.9947 40.6352 49.3394 41.1278 48.3805 41.1941 47.3476L41.3054 46.2485C41.4404 44.5861 41.4404 42.9155 41.3054 41.2531ZM40.1958 46.1489 40.0845 47.2558C40.0425 47.9936 39.6906 48.6794 39.1157 49.1439 38.1858 49.8571 37.0169 50.1845 35.8519 50.0582L34.7523 49.9469C32.9854 49.7848 31.668 48.2464 31.7797 46.4756L31.891 45.3771C32.0178 43.9271 32.2769 42.4917 32.665 41.0889L40.2331 41.8168C40.3213 43.2599 40.3088 44.7075 40.1958 46.1489Z" stroke="#F8C77F" stroke-width="0.556474" fill="#F8C77F" transform="matrix(0.982936 0.183947 -0.183949 0.982947 348.601 253.648)"/><path d="M42.4033 18.8856C41.2102 16.1205 38.8419 14.4683 36.0701 14.4683 33.5242 14.4683 31.7446 15.5256 30.4681 17.8022 27.4475 23.26 28.9689 26.817 30.4397 30.2521 31.4029 32.5036 32.3133 34.6305 32.0874 37.3422L32.0412 37.8953 41.7795 38.7417 41.9253 38.3399C44.3237 31.719 44.5018 24.6401 42.4033 18.8856ZM41.0216 37.562 33.2309 36.8842C33.3211 34.1575 32.3784 31.9527 31.4653 29.817 30.0368 26.4781 28.6873 23.3252 31.4424 18.3469 32.512 16.4338 33.9399 15.5813 36.0701 15.5813 38.419 15.5813 40.3549 16.9463 41.3694 19.2968 43.3265 24.6646 43.1963 31.2978 41.0216 37.562Z" stroke="#F8C77F" stroke-width="0.556474" fill="#F8C77F" transform="matrix(0.982936 0.183947 -0.183949 0.982947 348.601 253.648)"/></g></g></g><g clip-path="url(#clip49)"><g clip-path="url(#clip50)"><g clip-path="url(#clip51)"><path d="M22.6399 33.0453C22.4985 31.3602 22.1801 29.6945 21.69 28.0761L21.5515 27.6509 12.1622 28.5541 12.1182 29.0104C11.9827 30.6771 11.9827 32.3519 12.1182 34.0186L12.2256 35.0887C12.2888 36.1278 12.7823 37.0935 13.5873 37.7536 14.7494 38.6564 16.2154 39.0751 17.679 38.9222L18.7558 38.8148C21.1532 38.6207 22.94 36.5208 22.7479 34.1232ZM18.6562 37.7063 17.5655 37.8176C16.4012 37.9414 15.2338 37.6138 14.304 36.9022 13.7256 36.4329 13.3733 35.7402 13.3347 34.9963L13.2267 33.9179C13.114 32.4736 13.1023 31.0233 13.1916 29.5774L20.7596 28.8496C21.1488 30.2561 21.4081 31.6954 21.5342 33.1494L21.6422 34.2267C21.7557 36.0046 20.4307 37.5487 18.6562 37.7063Z" stroke="#F8C77F" stroke-width="0.556468" fill="#F8C77F" transform="matrix(0.993888 0.110391 -0.110393 0.993906 344.85 242.911)"/><path d="M17.3512 2.22587C14.5789 2.22587 12.2111 3.87747 11.0075 6.67261 8.92075 12.397 9.09882 19.477 11.4966 26.0973L11.6424 26.499 21.3795 25.6532 21.3339 25.1006C21.1074 22.3617 22.0206 20.2304 22.9877 17.9734 24.4535 14.55 25.9698 11.0108 22.9515 5.55745 21.6767 3.28316 19.8971 2.22587 17.3512 2.22587ZM21.9644 17.5343C21.0473 19.6751 20.1008 21.8848 20.1931 24.6382L12.4026 25.316C10.2279 19.0546 10.0977 12.422 12.0431 7.08384 13.0664 4.70383 15.0024 3.33881 17.3512 3.33881 19.3109 3.23653 21.1387 4.32633 21.9805 6.09889 24.7322 11.0737 23.3878 14.2116 21.9644 17.5343Z" stroke="#F8C77F" stroke-width="0.556468" fill="#F8C77F" transform="matrix(0.993888 0.110391 -0.110393 0.993906 344.85 242.911)"/><path d="M41.2588 40.7964 31.8695 39.8938 31.7309 40.3189C31.2416 41.934 30.9234 43.596 30.7816 45.2776L30.6703 46.3778C30.4826 48.7677 32.2627 50.8595 34.6518 51.0565L35.7375 51.1645C35.9337 51.1851 36.1307 51.1953 36.3279 51.1951 37.5996 51.2081 38.8371 50.7842 39.8337 49.9942 40.6348 49.3389 41.1274 48.38 41.1937 47.3471L41.305 46.2481C41.44 44.5857 41.44 42.9151 41.305 41.2527ZM40.1954 46.1485 40.0841 47.2553C40.0421 47.9932 39.6902 48.6789 39.1153 49.1434 38.1855 49.8566 37.0166 50.184 35.8516 50.0577L34.752 49.9464C32.9851 49.7843 31.6677 48.2459 31.7794 46.4751L31.8907 45.3767C32.0175 43.9267 32.2766 42.4913 32.6647 41.0885L40.2327 41.8164C40.3209 43.2595 40.3084 44.7071 40.1954 46.1485Z" stroke="#F8C77F" stroke-width="0.556468" fill="#F8C77F" transform="matrix(0.993888 0.110391 -0.110393 0.993906 344.85 242.911)"/><path d="M42.4029 18.8854C41.2098 16.1203 38.8415 14.4682 36.0697 14.4682 33.5239 14.4682 31.7443 15.5255 30.4678 17.802 27.4473 23.2598 28.9686 26.8168 30.4394 30.2519 31.4026 32.5033 32.313 34.6301 32.0871 37.3418L32.0409 37.8949 41.7791 38.7413 41.9249 38.3396C44.3233 31.7187 44.5013 24.6399 42.4029 18.8854ZM41.0212 37.5616 33.2306 36.8838C33.3208 34.1572 32.3781 31.9524 31.465 29.8167 30.0365 26.4779 28.6871 23.3249 31.4421 18.3468 32.5117 16.4336 33.9396 15.5811 36.0697 15.5811 38.4186 15.5811 40.3545 16.9461 41.369 19.2967 43.3261 24.6644 43.1959 31.2975 41.0212 37.5616Z" stroke="#F8C77F" stroke-width="0.556468" fill="#F8C77F" transform="matrix(0.993888 0.110391 -0.110393 0.993906 344.85 242.911)"/></g></g></g><path d="M369 155 378.297 152.297 381 143 383.703 152.297 393 155 383.703 157.703 381 167 378.297 157.703Z" stroke="#F8C77F" stroke-width="2" stroke-miterlimit="8" fill="none" fill-rule="evenodd"/><path d="M390 167 397.747 164.747 400 157 402.253 164.747 410 167 402.253 169.253 400 177 397.747 169.253Z" stroke="#F8C77F" stroke-width="2" stroke-miterlimit="8" fill="none" fill-rule="evenodd"/><g clip-path="url(#clip52)"><g clip-path="url(#clip53)"><g clip-path="url(#clip54)"><path d="M275.333 303.167 275.333 354.833 316.667 354.833 316.667 303.167ZM315.375 304.458 315.375 314.146 276.625 314.146 276.625 304.458ZM276.625 353.542 276.625 315.438 315.375 315.438 315.375 353.542Z" stroke="#F8C77F" stroke-width="0.645797" fill="#F8C77F"/><path d="M296 321.25C288.866 321.25 283.083 327.033 283.083 334.167 283.083 341.3 288.866 347.083 296 347.083 303.134 347.083 308.917 341.3 308.917 334.167 308.908 327.036 303.13 321.258 296 321.25ZM296 345.792C289.58 345.792 284.375 340.587 284.375 334.167 284.375 327.746 289.58 322.542 296 322.542 302.42 322.542 307.625 327.746 307.625 334.167 307.617 340.584 302.417 345.784 296 345.792Z" stroke="#F8C77F" stroke-width="0.645797" fill="#F8C77F"/><path d="M296 325.125C291.006 325.125 286.958 329.173 286.958 334.167 286.958 339.16 291.006 343.208 296 343.208 300.994 343.208 305.042 339.16 305.042 334.167 305.036 329.175 300.991 325.13 296 325.125ZM296 341.917C292.386 341.911 289.254 339.41 288.449 335.887 288.727 335.966 289.016 336.003 289.305 335.997 290.104 335.968 290.855 335.603 291.371 334.991 291.985 334.32 293.027 334.272 293.699 334.886 293.736 334.92 293.771 334.955 293.804 334.991 294.839 336.204 296.66 336.349 297.873 335.314 297.989 335.215 298.097 335.107 298.196 334.991 298.5 334.634 298.946 334.429 299.415 334.429L299.423 334.429C299.889 334.43 300.332 334.635 300.633 334.991 301.341 335.846 302.489 336.198 303.554 335.886 302.749 339.411 299.616 341.912 296 341.917ZM303.738 334.409C303.07 334.889 302.146 334.777 301.613 334.151 301.067 333.508 300.266 333.138 299.423 333.137L299.416 333.137C298.57 333.137 297.766 333.508 297.216 334.152 296.603 334.823 295.561 334.871 294.889 334.257 294.853 334.224 294.817 334.189 294.784 334.152 294.236 333.509 293.433 333.138 292.588 333.137L292.588 333.137C291.743 333.137 290.94 333.508 290.392 334.152 290.108 334.488 289.695 334.689 289.255 334.706 288.901 334.72 288.553 334.616 288.266 334.409 288.266 334.327 288.253 334.248 288.253 334.167 288.253 329.886 291.723 326.417 296.003 326.417 300.283 326.417 303.753 329.886 303.753 334.167 303.75 334.249 303.74 334.328 303.738 334.409Z" stroke="#F8C77F" stroke-width="0.645797" fill="#F8C77F"/><path d="M296.323 311.563C297.571 311.563 298.583 310.55 298.583 309.302 298.583 308.054 297.571 307.042 296.323 307.042 295.075 307.042 294.063 308.054 294.063 309.302 294.063 310.55 295.075 311.563 296.323 311.563ZM296.323 308.333C296.858 308.333 297.292 308.767 297.292 309.302 297.292 309.837 296.858 310.271 296.323 310.271 295.788 310.271 295.354 309.837 295.354 309.302 295.354 308.767 295.788 308.333 296.323 308.333Z" stroke="#F8C77F" stroke-width="0.645797" fill="#F8C77F"/><path d="M302.781 311.563C304.03 311.563 305.042 310.55 305.042 309.302 305.042 308.054 304.03 307.042 302.781 307.042 301.533 307.042 300.521 308.054 300.521 309.302 300.521 310.55 301.533 311.563 302.781 311.563ZM302.781 308.333C303.316 308.333 303.75 308.767 303.75 309.302 303.75 309.837 303.316 310.271 302.781 310.271 302.246 310.271 301.813 309.837 301.813 309.302 301.813 308.767 302.246 308.333 302.781 308.333Z" stroke="#F8C77F" stroke-width="0.645797" fill="#F8C77F"/><path d="M309.24 311.563C310.488 311.563 311.5 310.55 311.5 309.302 311.5 308.054 310.488 307.042 309.24 307.042 307.991 307.042 306.979 308.054 306.979 309.302 306.979 310.55 307.991 311.563 309.24 311.563ZM309.24 308.333C309.775 308.333 310.208 308.767 310.208 309.302 310.208 309.837 309.775 310.271 309.24 310.271 308.705 310.271 308.271 309.837 308.271 309.302 308.271 308.767 308.705 308.333 309.24 308.333Z" stroke="#F8C77F" stroke-width="0.645797" fill="#F8C77F"/><path d="M289.542 307.042 280.5 307.042 280.5 311.563 289.542 311.563ZM288.25 310.271 281.792 310.271 281.792 308.333 288.25 308.333Z" stroke="#F8C77F" stroke-width="0.645797" fill="#F8C77F"/></g></g></g></g></svg>