<svg width="1280" height="720" xmlns="http://www.w3.org/2000/svg" xmlns:xlink="http://www.w3.org/1999/xlink" overflow="hidden"><defs>
<clipPath id="clip0"><rect x="0" y="0" width="1280" height="720"/></clipPath>
<clipPath id="clip1">
<rect x="203" y="273" width="35" height="26"/>
</clipPath><clipPath id="clip2"><rect x="203" y="273" width="35" height="26"/>
</clipPath><clipPath id="clip3"><rect x="203" y="250" width="49" height="49"/>
</clipPath><clipPath id="clip4"><rect x="217" y="250" width="47" height="25"/>
</clipPath><clipPath id="clip5"><rect x="217" y="250" width="47" height="25"/
></clipPath><clipPath id="clip6"><rect x="217" y="250" width="48" height="46"/>
</clipPath><clipPath id="clip7"><rect x="259" y="273" width="35" height="26"/>
</clipPath><clipPath id="clip8"><rect x="259" y="273" width="35" height="26"/>
</clipPath><clipPath id="clip9"><rect x="259" y="250" width="49" height="49"/>
</clipPath><clipPath id="clip10"><rect x="275" y="249" width="48" height="27"/>
</clipPath><clipPath id="clip11"><rect x="276" y="249" width="47" height="27"/>
</clipPath><clipPath id="clip12"><rect x="276" y="249" width="48" height="48"/>
</clipPath><clipPath id="clip13"><path d="M371.903 271.013 391.779 274.733 384.451 313.891 364.575 310.171Z" fill-rule="evenodd" clip-rule="evenodd"/></clipPath><clipPath id="clip14">
<path d="M371.903 271.013 391.779 274.733 384.451 313.891 364.575 310.171Z" fill-rule="evenodd" clip-rule="evenodd"/></clipPath><clipPath id="clip15">
<path d="M348.601 253.648 401.111 263.475 391.284 315.986 338.774 306.159Z" fill-rule="evenodd" clip-rule="evenodd"/></clipPath><clipPath id="clip16">
<path d="M353.61 243.884 369.986 245.703 365.422 286.791 349.046 284.972Z" fill-rule="evenodd" clip-rule="evenodd"/></clipPath>
<clipPath id="clip17">
<path d="M353.61 243.884 369.986 245.703 365.422 286.791 349.046 284.972Z" fill-rule="evenodd" clip-rule="evenodd"/></clipPath><clipPath id="clip18">
<path d="M344.85 242.911 397.944 248.808 392.047 301.903 338.952 296.006Z" fill-rule="evenodd" clip-rule="evenodd"/></clipPath></defs>
<g clip-path="url(#clip0)"><rect x="0" y="0" width="1280" height="720" fill="#FFFFFF"/>
<g clip-path="url(#clip1)"><g clip-path="url(#clip2)"><g clip-path="url(#clip3)">
<path d="M21.7809 4.45518C21.7809 5.82213 20.7835 6.93027 19.5533 6.93027 18.323 6.93027 17.3257 5.82213 17.3257 4.45518 17.3257 3.08822 18.323 1.98008 19.5533 1.98008 20.7835 1.98008 21.7809 3.08822 21.7809 4.45518Z" stroke="#F8C77F" stroke-width="0.495069" fill="#F8C77F" transform="matrix(6.14582e-17 1.00369 -1 6.12323e-17 251.522 250.303)"/>
<path d="M16.3356 5.44521C16.3356 6.26539 15.7816 6.93027 15.0981 6.93027 14.4146 6.93027 13.8605 6.26539 13.8605 5.44521 13.8605 4.62504 14.4146 3.96016 15.0981 3.96016 15.7816 3.96016 16.3356 4.62504 16.3356 5.44521Z" stroke="#F8C77F" stroke-width="0.495069" fill="#F8C77F" transform="matrix(6.14582e-17 1.00369 -1 6.12323e-17 251.522 250.303)"/>
<path d="M13.3655 7.17778C13.3655 7.86126 12.9223 8.41533 12.3755 8.41533 11.8287 8.41533 11.3854 7.86126 11.3854 7.17778 11.3854 6.4943 11.8287 5.94023 12.3755 5.94023 12.9223 5.94023 13.3655 6.4943 13.3655 7.17778Z" stroke="#F8C77F" stroke-width="0.495069" fill="#F8C77F" transform="matrix(6.14582e-17 1.00369 -1 6.12323e-17 251.522 250.303)"/>
<path d="M11.3854 9.40537C11.3854 9.95216 11.053 10.3954 10.6429 10.3954 10.2328 10.3954 9.90039 9.95216 9.90039 9.40537 9.90039 8.85859 10.2328 8.41533 10.6429 8.41533 11.053 8.41533 11.3854 8.85859 11.3854 9.40537Z" stroke="#F8C77F" stroke-width="0.495069" fill="#F8C77F" transform="matrix(6.14582e-17 1.00369 -1 6.12323e-17 251.522 250.303)"/>
<path d="M9.90039 11.3854C9.90039 11.9322 9.56795 12.3755 9.15786 12.3755 8.74777 12.3755 8.41533 11.9322 8.41533 11.3854 8.41533 10.8387 8.74777 10.3954 9.15786 10.3954 9.56795 10.3954 9.90039 10.8387 9.90039 11.3854Z" stroke="#F8C77F" stroke-width="0.495069" fill="#F8C77F" transform="matrix(6.14582e-17 1.00369 -1 6.12323e-17 251.522 250.303)"/>
<path d="M16.8307 8.41533C13.9596 8.41533 8.91035 12.623 8.91035 15.8406 8.91035 20.3948 10.8904 20.8403 10.8904 24.256 10.8904 27.6716 8.95985 34.1563 15.3456 34.1563 22.6719 34.1563 18.3157 25.345 18.3157 23.2659 18.3157 17.7217 21.2858 16.0881 21.2858 11.8805 21.2858 9.10836 19.7018 8.41533 16.8307 8.41533Z" stroke="#F8C77F" stroke-width="0.495069" fill="#F8C77F" transform="matrix(6.14582e-17 1.00369 -1 6.12323e-17 251.522 250.303)"/>
<path d="M30.1962 15.8406C30.1962 17.2076 29.1989 18.3157 27.9686 18.3157 26.7383 18.3157 25.741 17.2076 25.741 15.8406 25.741 14.4737 26.7383 13.3655 27.9686 13.3655 29.1989 13.3655 30.1962 14.4737 30.1962 15.8406Z" stroke="#F8C77F" stroke-width="0.495069" fill="#F8C77F" transform="matrix(6.14582e-17 1.00369 -1 6.12323e-17 251.522 250.303)"/><path d="M33.6613 16.8307C33.6613 17.6508 33.1073 18.3157 32.4238 18.3157 31.7403 18.3157 31.1862 17.6508 31.1862 16.8307 31.1862 16.0105 31.7403 15.3456 32.4238 15.3456 33.1073 15.3456 33.6613 16.0105 33.6613 16.8307Z" stroke="#F8C77F" stroke-width="0.495069" fill="#F8C77F" transform="matrix(6.14582e-17 1.00369 -1 6.12323e-17 251.522 250.303)"/>
<path d="M36.1364 18.5632C36.1364 19.2467 35.6932 19.8008 35.1464 19.8008 34.5996 19.8008 34.1563 19.2467 34.1563 18.5632 34.1563 17.8798 34.5996 17.3257 35.1464 17.3257 35.6932 17.3257 36.1364 17.8798 36.1364 18.5632Z" stroke="#F8C77F" stroke-width="0.495069" fill="#F8C77F" transform="matrix(6.14582e-17 1.00369 -1 6.12323e-17 251.522 250.303)"/>
<path d="M37.6215 20.7908C37.6215 21.3376 37.289 21.7809 36.879 21.7809 36.4689 21.7809 36.1364 21.3376 36.1364 20.7908 36.1364 20.244 36.4689 19.8008 36.879 19.8008 37.289 19.8008 37.6215 20.244 37.6215 20.7908Z" stroke="#F8C77F" stroke-width="0.495069" fill="#F8C77F" transform="matrix(6.14582e-17 1.00369 -1 6.12323e-17 251.522 250.303)"/>
<path d="M39.1065 22.7709C39.1065 23.3177 38.7741 23.7609 38.364 23.7609 37.9539 23.7609 37.6215 23.3177 37.6215 22.7709 37.6215 22.2241 37.9539 21.7809 38.364 21.7809 38.7741 21.7809 39.1065 22.2241 39.1065 22.7709Z" stroke="#F8C77F" stroke-width="0.495069" fill="#F8C77F" transform="matrix(6.14582e-17 1.00369 -1 6.12323e-17 251.522 250.303)"/>
<path d="M30.6912 19.8008C27.8201 19.8008 26.236 20.4938 26.236 23.2659 26.236 27.4736 29.2062 29.1071 29.2062 34.6514 29.2062 36.7304 24.85 45.5418 32.1763 45.5418 38.562 45.5418 36.6314 39.057 36.6314 35.6414 36.6314 32.2258 38.6115 31.7803 38.6115 27.2261 38.6115 24.0084 33.5623 19.8008 30.6912 19.8008Z" stroke="#F8C77F" stroke-width="0.495069" fill="#F8C77F" transform="matrix(6.14582e-17 1.00369 -1 6.12323e-17 251.522 250.303)"/>
</g></g></g><g clip-path="url(#clip4)"><g clip-path="url(#clip5)"><g clip-path="url(#clip6)">
<path d="M20.9948 4.29439C20.9948 5.61202 20.0335 6.68016 18.8476 6.68016 17.6617 6.68016 16.7004 5.61202 16.7004 4.29439 16.7004 2.97677 17.6617 1.90862 18.8476 1.90862 20.0335 1.90862 20.9948 2.97677 20.9948 4.29439Z" stroke="#F8C77F" stroke-width="0.477202" fill="#F8C77F" transform="matrix(6.12323e-17 1 -1.02605 6.28273e-17 264.001 250)"/>
<path d="M15.7461 5.2487C15.7461 6.03928 15.212 6.68016 14.5532 6.68016 13.8944 6.68016 13.3603 6.03928 13.3603 5.2487 13.3603 4.45813 13.8944 3.81724 14.5532 3.81724 15.212 3.81724 15.7461 4.45813 15.7461 5.2487Z" stroke="#F8C77F" stroke-width="0.477202" fill="#F8C77F" transform="matrix(6.12323e-17 1 -1.02605 6.28273e-17 264.001 250)"/>
<path d="M12.8832 6.91874C12.8832 7.57755 12.4559 8.11163 11.9289 8.11163 11.4018 8.11163 10.9746 7.57755 10.9746 6.91874 10.9746 6.25993 11.4018 5.72586 11.9289 5.72586 12.4559 5.72586 12.8832 6.25993 12.8832 6.91874Z" stroke="#F8C77F" stroke-width="0.477202" fill="#F8C77F" transform="matrix(6.12323e-17 1 -1.02605 6.28273e-17 264.001 250)"/>
<path d="M10.9746 9.06594C10.9746 9.59299 10.6541 10.0202 10.2588 10.0202 9.86354 10.0202 9.54309 9.59299 9.54309 9.06594 9.54309 8.53889 9.86354 8.11163 10.2588 8.11163 10.6541 8.11163 10.9746 8.53889 10.9746 9.06594Z" stroke="#F8C77F" stroke-width="0.477202" fill="#F8C77F" transform="matrix(6.12323e-17 1 -1.02605 6.28273e-17 264.001 250)"/>
<path d="M9.54309 10.9746C9.54309 11.5016 9.22265 11.9289 8.82736 11.9289 8.43207 11.9289 8.11163 11.5016 8.11163 10.9746 8.11163 10.4475 8.43207 10.0202 8.82736 10.0202 9.22265 10.0202 9.54309 10.4475 9.54309 10.9746Z" stroke="#F8C77F" stroke-width="0.477202" fill="#F8C77F" transform="matrix(6.12323e-17 1 -1.02605 6.28273e-17 264.001 250)"/>
<path d="M16.2233 8.11163C13.4558 8.11163 8.58878 12.1674 8.58878 15.2689 8.58878 19.6588 10.4974 20.0882 10.4974 23.3806 10.4974 26.6729 8.6365 32.9237 14.7918 32.9237 21.8537 32.9237 17.6547 24.4303 17.6547 22.4263 17.6547 17.0821 20.5176 15.5075 20.5176 11.4517 20.5176 8.77964 18.9908 8.11163 16.2233 8.11163Z" stroke="#F8C77F" stroke-width="0.477202" fill="#F8C77F" transform="matrix(6.12323e-17 1 -1.02605 6.28273e-17 264.001 250)"/>
<path d="M29.1064 15.2689C29.1064 16.5866 28.1451 17.6547 26.9592 17.6547 25.7734 17.6547 24.812 16.5866 24.812 15.2689 24.812 13.9513 25.7734 12.8832 26.9592 12.8832 28.1451 12.8832 29.1064 13.9513 29.1064 15.2689Z" stroke="#F8C77F" stroke-width="0.477202" fill="#F8C77F" transform="matrix(6.12323e-17 1 -1.02605 6.28273e-17 264.001 250)"/>
<path d="M32.4465 16.2233C32.4465 17.0138 31.9124 17.6547 31.2536 17.6547 30.5948 17.6547 30.0607 17.0138 30.0607 16.2233 30.0607 15.4327 30.5948 14.7918 31.2536 14.7918 31.9124 14.7918 32.4465 15.4327 32.4465 16.2233Z" stroke="#F8C77F" stroke-width="0.477202" fill="#F8C77F" transform="matrix(6.12323e-17 1 -1.02605 6.28273e-17 264.001 250)"/>
<path d="M34.8323 17.8933C34.8323 18.5521 34.405 19.0862 33.878 19.0862 33.3509 19.0862 32.9237 18.5521 32.9237 17.8933 32.9237 17.2345 33.3509 16.7004 33.878 16.7004 34.405 16.7004 34.8323 17.2345 34.8323 17.8933Z" stroke="#F8C77F" stroke-width="0.477202" fill="#F8C77F" transform="matrix(6.12323e-17 1 -1.02605 6.28273e-17 264.001 250)"/>
<path d="M36.2638 20.0405C36.2638 20.5675 35.9433 20.9948 35.548 20.9948 35.1527 20.9948 34.8323 20.5675 34.8323 20.0405 34.8323 19.5134 35.1527 19.0862 35.548 19.0862 35.9433 19.0862 36.2638 19.5134 36.2638 20.0405Z" stroke="#F8C77F" stroke-width="0.477202" fill="#F8C77F" transform="matrix(6.12323e-17 1 -1.02605 6.28273e-17 264.001 250)"/>
<path d="M37.6952 21.9491C37.6952 22.4762 37.3748 22.9034 36.9795 22.9034 36.5842 22.9034 36.2638 22.4762 36.2638 21.9491 36.2638 21.4221 36.5842 20.9948 36.9795 20.9948 37.3748 20.9948 37.6952 21.4221 37.6952 21.9491Z" stroke="#F8C77F" stroke-width="0.477202" fill="#F8C77F" transform="matrix(6.12323e-17 1 -1.02605 6.28273e-17 264.001 250)"/>
<path d="M29.5836 19.0862C26.8161 19.0862 25.2892 19.7542 25.2892 22.4263 25.2892 26.4821 28.1521 28.0567 28.1521 33.4008 28.1521 35.4049 23.9532 43.8982 31.015 43.8982 37.1703 43.8982 35.3094 37.6475 35.3094 34.3551 35.3094 31.0628 37.2181 30.6333 37.2181 26.2435 37.2181 23.142 32.3511 19.0862 29.5836 19.0862Z" stroke="#F8C77F" stroke-width="0.477202" fill="#F8C77F" transform="matrix(6.12323e-17 1 -1.02605 6.28273e-17 264.001 250)"/></g></g></g><g clip-path="url(#clip7)"><g clip-path="url(#clip8)">
<g clip-path="url(#clip9)"><path d="M21.7809 4.45518C21.7809 5.82213 20.7835 6.93027 19.5533 6.93027 18.323 6.93027 17.3257 5.82213 17.3257 4.45518 17.3257 3.08822 18.323 1.98008 19.5533 1.98008 20.7835 1.98008 21.7809 3.08822 21.7809 4.45518Z" stroke="#F8C77F" stroke-width="0.495069" fill="#F8C77F" transform="matrix(6.14582e-17 1.00369 -1 6.12323e-17 307.522 250.303)"/>
<path d="M16.3356 5.44521C16.3356 6.26539 15.7816 6.93027 15.0981 6.93027 14.4146 6.93027 13.8605 6.26539 13.8605 5.44521 13.8605 4.62504 14.4146 3.96016 15.0981 3.96016 15.7816 3.96016 16.3356 4.62504 16.3356 5.44521Z" stroke="#F8C77F" stroke-width="0.495069" fill="#F8C77F" transform="matrix(6.14582e-17 1.00369 -1 6.12323e-17 307.522 250.303)"/>
<path d="M13.3655 7.17778C13.3655 7.86126 12.9223 8.41533 12.3755 8.41533 11.8287 8.41533 11.3854 7.86126 11.3854 7.17778 11.3854 6.4943 11.8287 5.94023 12.3755 5.94023 12.9223 5.94023 13.3655 6.4943 13.3655 7.17778Z" stroke="#F8C77F" stroke-width="0.495069" fill="#F8C77F" transform="matrix(6.14582e-17 1.00369 -1 6.12323e-17 307.522 250.303)"/>
<path d="M11.3854 9.40537C11.3854 9.95216 11.053 10.3954 10.6429 10.3954 10.2328 10.3954 9.90039 9.95216 9.90039 9.40537 9.90039 8.85859 10.2328 8.41533 10.6429 8.41533 11.053 8.41533 11.3854 8.85859 11.3854 9.40537Z" stroke="#F8C77F" stroke-width="0.495069" fill="#F8C77F" transform="matrix(6.14582e-17 1.00369 -1 6.12323e-17 307.522 250.303)"/>
<path d="M9.90039 11.3854C9.90039 11.9322 9.56795 12.3755 9.15786 12.3755 8.74777 12.3755 8.41533 11.9322 8.41533 11.3854 8.41533 10.8387 8.74777 10.3954 9.15786 10.3954 9.56795 10.3954 9.90039 10.8387 9.90039 11.3854Z" stroke="#F8C77F" stroke-width="0.495069" fill="#F8C77F" transform="matrix(6.14582e-17 1.00369 -1 6.12323e-17 307.522 250.303)"/>
<path d="M16.8307 8.41533C13.9596 8.41533 8.91035 12.623 8.91035 15.8406 8.91035 20.3948 10.8904 20.8403 10.8904 24.256 10.8904 27.6716 8.95985 34.1563 15.3456 34.1563 22.6719 34.1563 18.3157 25.345 18.3157 23.2659 18.3157 17.7217 21.2858 16.0881 21.2858 11.8805 21.2858 9.10836 19.7018 8.41533 16.8307 8.41533Z" stroke="#F8C77F" stroke-width="0.495069" fill="#F8C77F" transform="matrix(6.14582e-17 1.00369 -1 6.12323e-17 307.522 250.303)"/><path d="M30.1962 15.8406C30.1962 17.2076 29.1989 18.3157 27.9686 18.3157 26.7383 18.3157 25.741 17.2076 25.741 15.8406 25.741 14.4737 26.7383 13.3655 27.9686 13.3655 29.1989 13.3655 30.1962 14.4737 30.1962 15.8406Z" stroke="#F8C77F" stroke-width="0.495069" fill="#F8C77F" transform="matrix(6.14582e-17 1.00369 -1 6.12323e-17 307.522 250.303)"/>
<path d="M33.6613 16.8307C33.6613 17.6508 33.1073 18.3157 32.4238 18.3157 31.7403 18.3157 31.1862 17.6508 31.1862 16.8307 31.1862 16.0105 31.7403 15.3456 32.4238 15.3456 33.1073 15.3456 33.6613 16.0105 33.6613 16.8307Z" stroke="#F8C77F" stroke-width="0.495069" fill="#F8C77F" transform="matrix(6.14582e-17 1.00369 -1 6.12323e-17 307.522 250.303)"/>
<path d="M36.1364 18.5632C36.1364 19.2467 35.6932 19.8008 35.1464 19.8008 34.5996 19.8008 34.1563 19.2467 34.1563 18.5632 34.1563 17.8798 34.5996 17.3257 35.1464 17.3257 35.6932 17.3257 36.1364 17.8798 36.1364 18.5632Z" stroke="#F8C77F" stroke-width="0.495069" fill="#F8C77F" transform="matrix(6.14582e-17 1.00369 -1 6.12323e-17 307.522 250.303)"/>
<path d="M37.6215 20.7908C37.6215 21.3376 37.289 21.7809 36.879 21.7809 36.4689 21.7809 36.1364 21.3376 36.1364 20.7908 36.1364 20.244 36.4689 19.8008 36.879 19.8008 37.289 19.8008 37.6215 20.244 37.6215 20.7908Z" stroke="#F8C77F" stroke-width="0.495069" fill="#F8C77F" transform="matrix(6.14582e-17 1.00369 -1 6.12323e-17 307.522 250.303)"/>
<path d="M39.1065 22.7709C39.1065 23.3177 38.7741 23.7609 38.364 23.7609 37.9539 23.7609 37.6215 23.3177 37.6215 22.7709 37.6215 22.2241 37.9539 21.7809 38.364 21.7809 38.7741 21.7809 39.1065 22.2241 39.1065 22.7709Z" stroke="#F8C77F" stroke-width="0.495069" fill="#F8C77F" transform="matrix(6.14582e-17 1.00369 -1 6.12323e-17 307.522 250.303)"/>
<path d="M30.6912 19.8008C27.8201 19.8008 26.236 20.4938 26.236 23.2659 26.236 27.4736 29.2062 29.1071 29.2062 34.6514 29.2062 36.7304 24.85 45.5418 32.1763 45.5418 38.562 45.5418 36.6314 39.057 36.6314 35.6414 36.6314 32.2258 38.6115 31.7803 38.6115 27.2261 38.6115 24.0084 33.5623 19.8008 30.6912 19.8008Z" stroke="#F8C77F" stroke-width="0.495069" fill="#F8C77F" transform="matrix(6.14582e-17 1.00369 -1 6.12323e-17 307.522 250.303)"/></g></g></g><g clip-path="url(#clip10)"><g clip-path="url(#clip11)"><g clip-path="url(#clip12)">
<path d="M21.5417 4.40625C21.5417 5.7582 20.5553 6.85417 19.3385 6.85417 18.1218 6.85417 17.1354 5.7582 17.1354 4.40625 17.1354 3.0543 18.1218 1.95833 19.3385 1.95833 20.5553 1.95833 21.5417 3.0543 21.5417 4.40625Z" stroke="#F8C77F" stroke-width="0.489632" fill="#F8C77F" transform="matrix(6.2065e-17 1.0136 -1 6.12323e-17 323.001 249)"/>
<path d="M16.1563 5.38542C16.1563 6.19659 15.6083 6.85417 14.9323 6.85417 14.2563 6.85417 13.7083 6.19659 13.7083 5.38542 13.7083 4.57425 14.2563 3.91667 14.9323 3.91667 15.6083 3.91667 16.1563 4.57425 16.1563 5.38542Z" stroke="#F8C77F" stroke-width="0.489632" fill="#F8C77F" transform="matrix(6.2065e-17 1.0136 -1 6.12323e-17 323.001 249)"/>
<path d="M13.2188 7.09896C13.2188 7.77493 12.7804 8.32292 12.2396 8.32292 11.6988 8.32292 11.2604 7.77493 11.2604 7.09896 11.2604 6.42299 11.6988 5.875 12.2396 5.875 12.7804 5.875 13.2188 6.42299 13.2188 7.09896Z" stroke="#F8C77F" stroke-width="0.489632" fill="#F8C77F" transform="matrix(6.2065e-17 1.0136 -1 6.12323e-17 323.001 249)"/>
<path d="M11.2604 9.30208C11.2604 9.84286 10.9316 10.2813 10.526 10.2813 10.1205 10.2813 9.79167 9.84286 9.79167 9.30208 9.79167 8.7613 10.1205 8.32292 10.526 8.32292 10.9316 8.32292 11.2604 8.7613 11.2604 9.30208Z" stroke="#F8C77F" stroke-width="0.489632" fill="#F8C77F" transform="matrix(6.2065e-17 1.0136 -1 6.12323e-17 323.001 249)"/>
<path d="M9.79167 11.2604C9.79167 11.8012 9.46288 12.2396 9.05729 12.2396 8.65171 12.2396 8.32292 11.8012 8.32292 11.2604 8.32292 10.7196 8.65171 10.2813 9.05729 10.2813 9.46288 10.2813 9.79167 10.7196 9.79167 11.2604Z" stroke="#F8C77F" stroke-width="0.489632" fill="#F8C77F" transform="matrix(6.2065e-17 1.0136 -1 6.12323e-17 323.001 249)"/>
<path d="M16.6458 8.32292C13.8063 8.32292 8.8125 12.4844 8.8125 15.6667 8.8125 20.1708 10.7708 20.6115 10.7708 23.9896 10.7708 27.3677 8.86146 33.7813 15.1771 33.7813 22.4229 33.7813 18.1146 25.0667 18.1146 23.0104 18.1146 17.5271 21.0521 15.9115 21.0521 11.75 21.0521 9.00833 19.4854 8.32292 16.6458 8.32292Z" stroke="#F8C77F" stroke-width="0.489632" fill="#F8C77F" transform="matrix(6.2065e-17 1.0136 -1 6.12323e-17 323.001 249)"/>
<path d="M29.8646 15.6667C29.8646 17.0186 28.8782 18.1146 27.6615 18.1146 26.4447 18.1146 25.4583 17.0186 25.4583 15.6667 25.4583 14.3147 26.4447 13.2188 27.6615 13.2188 28.8782 13.2188 29.8646 14.3147 29.8646 15.6667Z" stroke="#F8C77F" stroke-width="0.489632" fill="#F8C77F" transform="matrix(6.2065e-17 1.0136 -1 6.12323e-17 323.001 249)"/>
<path d="M33.2917 16.6458C33.2917 17.457 32.7437 18.1146 32.0677 18.1146 31.3917 18.1146 30.8438 17.457 30.8438 16.6458 30.8438 15.8347 31.3917 15.1771 32.0677 15.1771 32.7437 15.1771 33.2917 15.8347 33.2917 16.6458Z" stroke="#F8C77F" stroke-width="0.489632" fill="#F8C77F" transform="matrix(6.2065e-17 1.0136 -1 6.12323e-17 323.001 249)"/>
<path d="M35.7396 18.3594C35.7396 19.0353 35.3012 19.5833 34.7604 19.5833 34.2196 19.5833 33.7813 19.0353 33.7813 18.3594 33.7813 17.6834 34.2196 17.1354 34.7604 17.1354 35.3012 17.1354 35.7396 17.6834 35.7396 18.3594Z" stroke="#F8C77F" stroke-width="0.489632" fill="#F8C77F" transform="matrix(6.2065e-17 1.0136 -1 6.12323e-17 323.001 249)"/>
<path d="M37.2083 20.5625C37.2083 21.1033 36.8795 21.5417 36.474 21.5417 36.0684 21.5417 35.7396 21.1033 35.7396 20.5625 35.7396 20.0217 36.0684 19.5833 36.474 19.5833 36.8795 19.5833 37.2083 20.0217 37.2083 20.5625Z" stroke="#F8C77F" stroke-width="0.489632" fill="#F8C77F" transform="matrix(6.2065e-17 1.0136 -1 6.12323e-17 323.001 249)"/>
<path d="M38.6771 22.5208C38.6771 23.0616 38.3483 23.5 37.9427 23.5 37.5371 23.5 37.2083 23.0616 37.2083 22.5208 37.2083 21.9801 37.5371 21.5417 37.9427 21.5417 38.3483 21.5417 38.6771 21.9801 38.6771 22.5208Z" stroke="#F8C77F" stroke-width="0.489632" fill="#F8C77F" transform="matrix(6.2065e-17 1.0136 -1 6.12323e-17 323.001 249)"/>
<path d="M30.3542 19.5833C27.5146 19.5833 25.9479 20.2688 25.9479 23.0104 25.9479 27.1719 28.8854 28.7875 28.8854 34.2708 28.8854 36.3271 24.5771 45.0417 31.8229 45.0417 38.1385 45.0417 36.2292 38.6281 36.2292 35.25 36.2292 31.8719 38.1875 31.4312 38.1875 26.9271 38.1875 23.7448 33.1938 19.5833 30.3542 19.5833Z" stroke="#F8C77F" stroke-width="0.489632" fill="#F8C77F" transform="matrix(6.2065e-17 1.0136 -1 6.12323e-17 323.001 249)"/></g></g></g>
<g clip-path="url(#clip13)"><g clip-path="url(#clip14)"><g clip-path="url(#clip15)"><path d="M22.6401 33.0456C22.4987 31.3605 22.1803 29.6948 21.6902 28.0763L21.5517 27.6512 12.1623 28.5543 12.1183 29.0107C11.9828 30.6773 11.9828 32.3522 12.1183 34.0189L12.2257 35.089C12.2889 36.1281 12.7824 37.0939 13.5874 37.754 14.7495 38.6567 16.2156 39.0754 17.6792 38.9226L18.756 38.8152C21.1534 38.6211 22.9402 36.5212 22.7481 34.1235ZM18.6563 37.7067 17.5657 37.818C16.4014 37.9418 15.234 37.6141 14.3042 36.9026 13.7257 36.4332 13.3734 35.7406 13.3348 34.9966L13.2268 33.9182C13.1141 32.4739 13.1025 31.0236 13.1918 29.5777L20.7598 28.8498C21.149 30.2564 21.4083 31.6957 21.5344 33.1497L21.6424 34.227C21.756 36.005 20.4309 37.5491 18.6563 37.7067Z" stroke="#F8C77F" stroke-width="0.556474" fill="#F8C77F" transform="matrix(0.982936 0.183947 -0.183949 0.982947 348.601 253.648)"/>
<path d="M17.3514 2.2259C14.5791 2.2259 12.2113 3.87751 11.0076 6.67268 8.92083 12.3971 9.0989 19.4771 11.4967 26.0975L11.6425 26.4993 21.3797 25.6534 21.3341 25.1009C21.1076 22.3619 22.0208 20.2306 22.9879 17.9735 24.4537 14.5501 25.9701 11.0109 22.9518 5.5575 21.6769 3.2832 19.8973 2.2259 17.3514 2.2259ZM21.9646 17.5345C21.0475 19.6752 20.101 21.885 20.1933 24.6384L12.4027 25.3162C10.228 19.0548 10.0978 12.4222 12.0432 7.08391 13.0666 4.70387 15.0025 3.33884 17.3514 3.33884 19.3111 3.23656 21.1389 4.32637 21.9807 6.09895 24.7325 11.0738 23.388 14.2118 21.9646 17.5345Z" stroke="#F8C77F" stroke-width="0.556474" fill="#F8C77F" transform="matrix(0.982936 0.183947 -0.183949 0.982947 348.601 253.648)"/>
<path d="M41.2592 40.7968 31.8698 39.8942 31.7313 40.3193C31.2419 41.9344 30.9237 43.5964 30.7819 45.278L30.6706 46.3782C30.4829 48.7681 32.263 50.86 34.6522 51.057L35.7379 51.165C35.934 51.1856 36.1311 51.1958 36.3283 51.1956 37.5999 51.2086 38.8375 50.7847 39.8341 49.9947 40.6352 49.3394 41.1278 48.3805 41.1941 47.3476L41.3054 46.2485C41.4404 44.5861 41.4404 42.9155 41.3054 41.2531ZM40.1958 46.1489 40.0845 47.2558C40.0425 47.9936 39.6906 48.6794 39.1157 49.1439 38.1858 49.8571 37.0169 50.1845 35.8519 50.0582L34.7523 49.9469C32.9854 49.7848 31.668 48.2464 31.7797 46.4756L31.891 45.3771C32.0178 43.9271 32.2769 42.4917 32.665 41.0889L40.2331 41.8168C40.3213 43.2599 40.3088 44.7075 40.1958 46.1489Z" stroke="#F8C77F" stroke-width="0.556474" fill="#F8C77F" transform="matrix(0.982936 0.183947 -0.183949 0.982947 348.601 253.648)"/>
<path d="M42.4033 18.8856C41.2102 16.1205 38.8419 14.4683 36.0701 14.4683 33.5242 14.4683 31.7446 15.5256 30.4681 17.8022 27.4475 23.26 28.9689 26.817 30.4397 30.2521 31.4029 32.5036 32.3133 34.6305 32.0874 37.3422L32.0412 37.8953 41.7795 38.7417 41.9253 38.3399C44.3237 31.719 44.5018 24.6401 42.4033 18.8856ZM41.0216 37.562 33.2309 36.8842C33.3211 34.1575 32.3784 31.9527 31.4653 29.817 30.0368 26.4781 28.6873 23.3252 31.4424 18.3469 32.512 16.4338 33.9399 15.5813 36.0701 15.5813 38.419 15.5813 40.3549 16.9463 41.3694 19.2968 43.3265 24.6646 43.1963 31.2978 41.0216 37.562Z" stroke="#F8C77F" stroke-width="0.556474" fill="#F8C77F" transform="matrix(0.982936 0.183947 -0.183949 0.982947 348.601 253.648)"/></g></g></g>
<g clip-path="url(#clip16)"><g clip-path="url(#clip17)"><g clip-path="url(#clip18)"><path d="M22.6399 33.0453C22.4985 31.3602 22.1801 29.6945 21.69 28.0761L21.5515 27.6509 12.1622 28.5541 12.1182 29.0104C11.9827 30.6771 11.9827 32.3519 12.1182 34.0186L12.2256 35.0887C12.2888 36.1278 12.7823 37.0935 13.5873 37.7536 14.7494 38.6564 16.2154 39.0751 17.679 38.9222L18.7558 38.8148C21.1532 38.6207 22.94 36.5208 22.7479 34.1232ZM18.6562 37.7063 17.5655 37.8176C16.4012 37.9414 15.2338 37.6138 14.304 36.9022 13.7256 36.4329 13.3733 35.7402 13.3347 34.9963L13.2267 33.9179C13.114 32.4736 13.1023 31.0233 13.1916 29.5774L20.7596 28.8496C21.1488 30.2561 21.4081 31.6954 21.5342 33.1494L21.6422 34.2267C21.7557 36.0046 20.4307 37.5487 18.6562 37.7063Z" stroke="#F8C77F" stroke-width="0.556468" fill="#F8C77F" transform="matrix(0.993888 0.110391 -0.110393 0.993906 344.85 242.911)"/>
<path d="M17.3512 2.22587C14.5789 2.22587 12.2111 3.87747 11.0075 6.67261 8.92075 12.397 9.09882 19.477 11.4966 26.0973L11.6424 26.499 21.3795 25.6532 21.3339 25.1006C21.1074 22.3617 22.0206 20.2304 22.9877 17.9734 24.4535 14.55 25.9698 11.0108 22.9515 5.55745 21.6767 3.28316 19.8971 2.22587 17.3512 2.22587ZM21.9644 17.5343C21.0473 19.6751 20.1008 21.8848 20.1931 24.6382L12.4026 25.316C10.2279 19.0546 10.0977 12.422 12.0431 7.08384 13.0664 4.70383 15.0024 3.33881 17.3512 3.33881 19.3109 3.23653 21.1387 4.32633 21.9805 6.09889 24.7322 11.0737 23.3878 14.2116 21.9644 17.5343Z" stroke="#F8C77F" stroke-width="0.556468" fill="#F8C77F" transform="matrix(0.993888 0.110391 -0.110393 0.993906 344.85 242.911)"/>
<path d="M41.2588 40.7964 31.8695 39.8938 31.7309 40.3189C31.2416 41.934 30.9234 43.596 30.7816 45.2776L30.6703 46.3778C30.4826 48.7677 32.2627 50.8595 34.6518 51.0565L35.7375 51.1645C35.9337 51.1851 36.1307 51.1953 36.3279 51.1951 37.5996 51.2081 38.8371 50.7842 39.8337 49.9942 40.6348 49.3389 41.1274 48.38 41.1937 47.3471L41.305 46.2481C41.44 44.5857 41.44 42.9151 41.305 41.2527ZM40.1954 46.1485 40.0841 47.2553C40.0421 47.9932 39.6902 48.6789 39.1153 49.1434 38.1855 49.8566 37.0166 50.184 35.8516 50.0577L34.752 49.9464C32.9851 49.7843 31.6677 48.2459 31.7794 46.4751L31.8907 45.3767C32.0175 43.9267 32.2766 42.4913 32.6647 41.0885L40.2327 41.8164C40.3209 43.2595 40.3084 44.7071 40.1954 46.1485Z" stroke="#F8C77F" stroke-width="0.556468" fill="#F8C77F" transform="matrix(0.993888 0.110391 -0.110393 0.993906 344.85 242.911)"/>
<path d="M42.4029 18.8854C41.2098 16.1203 38.8415 14.4682 36.0697 14.4682 33.5239 14.4682 31.7443 15.5255 30.4678 17.802 27.4473 23.2598 28.9686 26.8168 30.4394 30.2519 31.4026 32.5033 32.313 34.6301 32.0871 37.3418L32.0409 37.8949 41.7791 38.7413 41.9249 38.3396C44.3233 31.7187 44.5013 24.6399 42.4029 18.8854ZM41.0212 37.5616 33.2306 36.8838C33.3208 34.1572 32.3781 31.9524 31.465 29.8167 30.0365 26.4779 28.6871 23.3249 31.4421 18.3468 32.5117 16.4336 33.9396 15.5811 36.0697 15.5811 38.4186 15.5811 40.3545 16.9461 41.369 19.2967 43.3261 24.6644 43.1959 31.2975 41.0212 37.5616Z" stroke="#F8C77F" stroke-width="0.556468" fill="#F8C77F" transform="matrix(0.993888 0.110391 -0.110393 0.993906 344.85 242.911)"/></g></g></g>
<path d="M369 155 378.297 152.297 381 143 383.703 152.297 393 155 383.703 157.703 381 167 378.297 157.703Z" stroke="#F8C77F" stroke-width="2" stroke-miterlimit="8" fill="none" fill-rule="evenodd"/>
<path d="M390 167 397.747 164.747 400 157 402.253 164.747 410 167 402.253 169.253 400 177 397.747 169.253Z" stroke="#F8C77F" stroke-width="2" stroke-miterlimit="8" fill="none" fill-rule="evenodd"/>
<path d="M185.802 108.659 188.5 108.659C187.711 107.652 186.776 106.766 185.727 106.03 185.095 103.935 183.154 102.5 180.951 102.5 177.46 102.5 174.083 106.544 172.631 109.222 165.597 110.673 159.364 114.686 155.16 120.469L146.71 128.867C146.43 129.145 146.43 129.596 146.71 129.875 146.845 130.008 147.027 130.083 147.217 130.083L150.072 130.083 150.072 132.916C150.072 133.31 150.393 133.628 150.79 133.628 150.98 133.628 151.162 133.553 151.296 133.42L158.171 126.596C160.517 127.769 163.098 128.407 165.725 128.465L165.725 132.215C165.129 132.215 164.645 132.694 164.645 133.286 164.645 133.877 165.129 134.357 165.725 134.357L166.372 134.357 168.207 136.178C168.603 136.592 169.262 136.609 169.679 136.216 169.692 136.204 169.705 136.191 169.717 136.178 170.135 135.785 170.152 135.131 169.756 134.717 169.744 134.704 169.731 134.691 169.717 134.678L169.394 134.357 170.581 134.357C171.177 134.357 171.66 133.877 171.66 133.286 171.66 132.694 171.177 132.215 170.581 132.215L167.883 132.215 167.883 128.39C168.609 128.322 169.329 128.209 170.041 128.053L170.041 130.083C169.445 130.083 168.962 130.562 168.962 131.154L170.581 131.154C171.773 131.157 172.737 132.118 172.735 133.301 172.734 133.575 172.681 133.846 172.577 134.1 172.774 134.265 173.021 134.36 173.279 134.368 173.563 134.364 173.835 134.248 174.034 134.046 174.451 133.653 174.469 132.999 174.073 132.585 174.06 132.572 174.047 132.559 174.034 132.547L173.71 132.225 174.897 132.225C175.493 132.225 175.977 131.746 175.977 131.154 175.977 130.562 175.493 130.083 174.897 130.083L172.2 130.083 172.2 127.437C179.061 124.984 183.726 118.631 183.979 111.396 184.883 110.717 185.526 109.751 185.802 108.659Z" stroke="#F8C77F" stroke-width="0.531234" stroke-miterlimit="8" fill="#F8C77F" fill-rule="evenodd"/>
<path d="M96.5001 203.5C96.5001 200.186 93.8138 197.5 90.5001 197.5 87.1864 197.5 84.5001 200.186 84.5001 203.5 84.5001 206.814 87.1864 209.5 90.5001 209.5 93.8122 209.496 96.4962 206.812 96.5001 203.5ZM90.5001 207.5C88.2909 207.5 86.5001 205.709 86.5001 203.5 86.5001 201.291 88.2909 199.5 90.5001 199.5 92.7092 199.5 94.5001 201.291 94.5001 203.5 94.5001 205.709 92.7092 207.5 90.5001 207.5Z" stroke="#F8C77F" stroke-miterlimit="8" fill="#F8C77F" fill-rule="evenodd"/>
<path d="M80.5001 221.5 112.5 221.5 112.5 222.5C112.503 225.26 114.74 227.497 117.5 227.5L160.5 227.5 160.5 232.5 162.5 232.5 162.5 204.5C162.497 201.74 160.26 199.503 157.5 199.5L107.5 199.5C101.98 199.506 97.5061 203.98 97.5001 209.5L80.5001 209.5 80.5001 186.5C80.5001 185.948 80.0523 185.5 79.5001 185.5 78.9478 185.5 78.5001 185.948 78.5001 186.5L78.5001 232.5 80.5001 232.5ZM114.5 221.5 114.5 201.5 157.5 201.5C159.157 201.5 160.5 202.843 160.5 204.5L160.5 225.5 117.5 225.5C115.843 225.5 114.5 224.157 114.5 222.5ZM107.5 201.5 112.5 201.5 112.5 209.5 99.5001 209.5C99.5051 205.084 103.084 201.505 107.5 201.5ZM80.5001 211.5 112.5 211.5 112.5 219.5 80.5001 219.5Z" stroke="#F8C77F" stroke-miterlimit="8" fill="#F8C77F" fill-rule="evenodd"/>
<path d="M179.238 321.885 98.4376 321.885 98.4376 315.346C98.4411 311.878 101.209 309.068 104.624 309.064L104.876 309.064C108.291 309.068 111.059 311.878 111.063 315.346 111.063 316.054 111.628 316.628 112.325 316.628 113.022 316.628 113.588 316.054 113.588 315.346 113.583 310.463 109.685 306.505 104.876 306.5L104.624 306.5C99.8147 306.505 95.9174 310.463 95.9125 315.346L95.9125 321.885 80.7626 321.885C80.0653 321.885 79.5001 322.459 79.5001 323.167 79.5001 323.875 80.0653 324.449 80.7626 324.449L86.1358 324.449 89.6619 336.385C91.3215 342.083 95.4987 346.672 100.963 348.799L100.963 355.218C100.963 355.926 101.528 356.5 102.225 356.5 102.922 356.5 103.488 355.926 103.488 355.218L103.488 349.586C104.902 349.919 106.349 350.088 107.802 350.09L151.547 350.09C153.225 350.086 154.895 349.855 156.513 349.401L156.513 355.218C156.513 355.926 157.078 356.5 157.775 356.5 158.472 356.5 159.038 355.926 159.038 355.218L159.038 348.808C159.03 348.714 159.012 348.622 158.983 348.532 163.873 346.414 167.661 342.306 169.422 337.213L173.821 324.449 179.238 324.449C179.935 324.449 180.5 323.875 180.5 323.167 180.5 322.459 179.935 321.885 179.238 321.885ZM167.038 336.364C164.73 343.046 158.52 347.52 151.547 347.526L107.802 347.526C100.543 347.56 94.1345 342.719 92.0809 335.649L88.7719 324.449 171.145 324.449Z" stroke="#F8C77F" stroke-width="1.26037" stroke-miterlimit="8" fill="#F8C77F" fill-rule="evenodd"/>
<path d="M164.363 308.281C164.393 308.049 164.406 307.816 164.402 307.582 164.465 303.734 161.394 300.564 157.542 300.501 153.69 300.438 150.516 303.507 150.453 307.354 150.453 307.392 150.452 307.43 150.452 307.468 150.448 309.114 151.038 310.707 152.114 311.953 152.117 311.956 152.116 311.959 152.112 311.959 150.105 312.22 148.326 313.163 145.91 313.163 143.991 313.163 141.671 312.568 138.518 310.565 138.398 310.49 138.259 310.45 138.117 310.451 137.76 310.445 137.445 310.684 137.355 311.03 136.193 315.171 136.038 317.533 138.014 320.436 140.804 324.461 143.788 324.5 151.421 324.5L152.104 324.5C159.28 324.5 162.813 324.427 162.813 319.623 162.813 317.029 162.232 315.016 160.566 313.7 161.475 313.218 162.259 312.528 162.852 311.688 164.327 311.559 165.704 310.898 166.727 309.829 167.046 309.489 167.307 309.098 167.5 308.673 167.501 308.671 167.5 308.669 167.498 308.668 167.497 308.668 167.497 308.668 167.497 308.668ZM160.219 313.008 159.992 313.122C159.704 313.265 159.402 313.379 159.091 313.46L158.77 313.545C158.569 313.593 158.437 313.784 158.463 313.989 158.494 314.175 158.656 314.312 158.845 314.312 158.878 314.312 158.911 314.308 158.944 314.3L159.793 314.077 160.085 314.308C161.436 315.375 162.038 317.014 162.038 319.623 162.038 323.539 159.651 323.726 152.104 323.726L151.768 323.726 151.421 323.726C144.01 323.726 141.237 323.726 138.655 320 136.883 317.397 137 315.258 138.009 311.574 138.037 311.471 138.097 311.256 138.106 311.225 138.106 311.222 138.109 311.223 138.111 311.224 141.027 313.075 143.505 313.937 145.91 313.937 147.289 313.9 148.655 313.666 149.967 313.241 150.704 313.016 151.456 312.844 152.218 312.726L153.647 312.542C153.651 312.542 153.652 312.539 153.65 312.536L152.703 311.45C150.49 308.857 150.801 304.962 153.397 302.751 154.291 301.989 155.385 301.498 156.549 301.336 159.943 300.855 163.085 303.215 163.566 306.605 163.606 306.891 163.627 307.18 163.627 307.468 163.633 307.703 163.623 307.938 163.596 308.172L163.576 308.31C163.129 308.5 162.761 308.839 162.537 309.27 162.162 309.891 161.893 310.789 162.104 311.406 161.595 312.065 160.953 312.611 160.219 313.008ZM163.553 309.228C163.718 309.08 163.939 309.01 164.159 309.037L164.268 309.05 166.167 309.283C166.169 309.283 166.17 309.285 166.17 309.287 166.17 309.288 166.17 309.289 166.169 309.289 166.153 309.307 166.101 309.366 166.078 309.39 165.196 310.264 164.036 310.803 162.799 310.913 162.827 310.472 162.965 310.044 163.201 309.67 163.297 309.507 163.416 309.358 163.553 309.228Z" stroke="#F8C77F" stroke-width="0.385407" stroke-miterlimit="8" fill="#F8C77F" fill-rule="evenodd"/>
<path d="M160.499 304.5C159.957 304.491 159.51 304.923 159.5 305.465 159.5 305.476 159.5 305.488 159.5 305.499 159.498 306.05 159.943 306.498 160.494 306.5 160.496 306.5 160.498 306.5 160.501 306.5 161.043 306.51 161.49 306.078 161.5 305.536 161.5 305.524 161.5 305.512 161.5 305.501 161.502 304.95 161.057 304.502 160.506 304.5 160.504 304.5 160.502 304.5 160.499 304.5Z" stroke="#F8C77F" stroke-width="0.385407" stroke-miterlimit="8" fill="#F8C77F" fill-rule="evenodd"/><path d="M270.106 175.185C270.671 175.475 271.382 175.282 271.693 174.755 274.063 170.74 278.437 168.103 283.336 167.737L283.336 176.41C283.336 177.012 283.859 177.5 284.505 177.5 285.151 177.5 285.674 177.012 285.674 176.41L285.674 167.737C290.573 168.103 294.947 170.74 297.317 174.755 297.638 175.278 298.352 175.458 298.912 175.159 299.459 174.867 299.659 174.224 299.365 173.704 294.86 166.051 284.555 163.252 276.348 167.453 273.522 168.9 271.196 171.068 269.645 173.704 269.334 174.232 269.54 174.894 270.106 175.185Z" stroke="#F8C77F" stroke-width="1.17711" stroke-miterlimit="8" fill="#F8C77F" fill-rule="evenodd"/>
<path d="M300 158.5 283.5 158.5 283.5 162.5C283.5 163.052 284.028 163.5 284.679 163.5 285.33 163.5 285.857 163.052 285.857 162.5L285.857 160.5 300 160.5C307.808 160.507 314.134 165.876 314.143 172.5L314.143 173.5C314.143 174.052 314.671 174.5 315.322 174.5 315.972 174.5 316.5 174.052 316.5 173.5L316.5 172.5C316.49 164.771 309.109 158.508 300 158.5Z" stroke="#F8C77F" stroke-width="1.17711" stroke-miterlimit="8" fill="#F8C77F" fill-rule="evenodd"/><path d="M268.5 184.5C270.709 184.5 272.5 182.933 272.5 181 272.5 179.067 270.709 177.5 268.5 177.5 266.291 177.5 264.5 179.067 264.5 181 264.5 182.933 266.291 184.5 268.5 184.5ZM268.5 179.5C269.447 179.5 270.214 180.172 270.214 181 270.214 181.829 269.447 182.5 268.5 182.5 267.553 182.5 266.786 181.829 266.786 181 266.786 180.172 267.553 179.5 268.5 179.5Z" stroke="#F8C77F" stroke-width="1.17711" stroke-miterlimit="8" fill="#F8C77F" fill-rule="evenodd"/>
<path d="M296.5 183.5 303.5 183.5 303.5 177.5 296.5 177.5ZM298.833 179.5 301.167 179.5 301.167 181.5 298.833 181.5Z" stroke="#F8C77F" stroke-width="1.17711" stroke-miterlimit="8" fill="#F8C77F" fill-rule="evenodd"/><path d="M279.5 187.5 290.5 187.5 285 179.5ZM283.547 185.5 285 183.387 286.453 185.5Z" stroke="#F8C77F" stroke-width="1.17711" stroke-miterlimit="8" fill="#F8C77F" fill-rule="evenodd"/>
<path d="M315.324 177.5C314.675 177.5 314.149 177.973 314.149 178.556L314.149 194.389 231.851 194.389 231.851 178.556C231.851 177.973 231.325 177.5 230.676 177.5 230.026 177.5 229.5 177.973 229.5 178.556L229.5 233.444C229.5 234.027 230.026 234.5 230.676 234.5 231.325 234.5 231.851 234.027 231.851 233.444L231.851 223.959C259.08 219.717 286.92 219.717 314.149 223.959L314.149 233.444C314.149 234.027 314.675 234.5 315.324 234.5 315.974 234.5 316.5 234.027 316.5 233.444L316.5 178.556C316.5 177.973 315.974 177.5 315.324 177.5ZM260.068 196.5 271.824 196.5 271.824 218.673C267.945 218.691 264.006 218.796 260.068 218.981ZM257.716 219.104C253.748 219.324 249.804 219.624 245.96 220.002L245.96 196.5 257.716 196.5ZM274.176 196.5 285.932 196.5 285.932 218.983C281.994 218.798 278.055 218.693 274.176 218.675ZM288.284 196.5 300.041 196.5 300.041 220.002C296.196 219.624 292.252 219.324 288.284 219.104ZM231.851 196.5 243.608 196.5 243.608 220.25C239.52 220.689 235.572 221.215 231.851 221.819ZM302.392 220.25 302.392 196.5 314.149 196.5 314.149 221.813C310.428 221.21 306.48 220.684 302.392 220.25Z" stroke="#F8C77F" stroke-width="1.17711" stroke-miterlimit="8" fill="#F8C77F" fill-rule="evenodd"/>
<path d="M584.5 118.017 584.5 115.269C584.436 113.761 583.189 112.565 581.658 112.544L577.082 112.54C580.157 109.793 582.307 106.441 582.935 103.344L583.062 102.713 582.407 102.687C580.27 102.661 578.151 103.078 576.188 103.911 577.72 101.951 578.762 99.6636 579.23 97.233L579.331 96.6242 578.706 96.5951C576.855 96.587 575.037 97.0761 573.446 98.0099 574.519 96.2511 575.223 94.2985 575.519 92.267L575.593 91.6852 575 91.6495C573.682 91.5693 572.225 92.1841 570.828 93.3676 570.781 91.4215 570.113 89.5396 568.918 87.9896L568.494 87.5001 568.071 87.9896C566.877 89.5397 566.209 91.4213 566.161 93.3671 564.768 92.1836 563.31 91.5698 561.989 91.6495L561.396 91.6852 561.47 92.267C561.766 94.299 562.471 96.2521 563.543 98.0116 561.952 97.0788 560.134 96.5893 558.283 96.5951L557.658 96.6242 557.759 97.233C558.23 99.6647 559.274 101.953 560.807 103.914 558.842 103.079 556.721 102.661 554.582 102.687L553.93 102.711 554.057 103.342C554.68 106.436 556.823 109.781 559.889 112.524L555.287 112.522C553.748 112.524 552.502 113.753 552.5 115.269L552.5 118.017 554.856 118.017 557.465 132.278C557.697 133.555 558.818 134.489 560.134 134.5L576.86 134.5C578.174 134.487 579.292 133.555 579.524 132.28L582.143 118.017ZM575.37 112.539 571.373 112.535C570.751 111.573 570.048 110.663 569.271 109.817 569.924 109.162 570.616 108.547 571.345 107.975 574.646 105.407 578.455 103.872 581.684 103.783 580.865 106.786 578.551 109.998 575.37 112.539ZM573.694 105.101C572.877 105.556 572.088 106.058 571.331 106.605 570.77 105.321 570.057 104.106 569.207 102.986 569.677 102.416 570.18 101.875 570.716 101.364 573.049 99.1666 575.721 97.8325 578.002 97.6979 577.268 100.503 575.78 103.06 573.694 105.101ZM574.31 92.7781C573.841 95.0984 572.815 97.2742 571.319 99.1237 571.062 99.4361 570.789 99.7357 570.502 100.021 570.155 98.9784 569.701 97.9734 569.148 97.0215 569.438 96.5636 569.754 96.1224 570.095 95.7001 571.457 94.033 572.987 92.9825 574.31 92.7781ZM568.494 89.2703C569.348 90.7219 569.779 92.3776 569.739 94.055 569.739 94.1824 569.734 94.3072 569.73 94.4324 569.562 94.6182 569.395 94.8089 569.228 95.0111 568.972 95.3242 568.73 95.6572 568.495 96 568.261 95.66 568.019 95.328 567.762 95.0111 567.595 94.8089 567.428 94.6182 567.261 94.4324 567.256 94.3072 567.251 94.1824 567.251 94.055 567.211 92.3777 567.641 90.722 568.494 89.2703ZM565.671 99.1237C564.174 97.2742 563.148 95.0984 562.679 92.7781 564.001 92.9825 565.532 94.033 566.893 95.7001 568.139 97.2431 569.062 99.0145 569.609 100.912 569.224 101.294 568.855 101.691 568.503 102.105 568.045 101.567 567.558 101.055 567.043 100.57 566.904 100.44 566.764 100.314 566.623 100.19L566.636 100.177C566.293 99.845 565.971 99.4933 565.671 99.1237ZM558.989 97.6979C561.27 97.8325 563.942 99.1671 566.275 101.364 568.061 103.036 569.471 105.059 570.414 107.302 569.743 107.837 569.102 108.407 568.493 109.009 567.812 108.334 567.091 107.7 566.333 107.11 565.437 106.413 564.491 105.78 563.503 105.217 563.386 105.151 563.259 105.064 563.259 105.064 561.193 103.029 559.719 100.485 558.989 97.6979ZM555.305 103.786C558.534 103.874 562.343 105.41 565.644 107.978 567.328 109.277 568.809 110.814 570.038 112.539L561.605 112.528C558.431 109.989 556.123 106.781 555.305 103.786ZM553.615 115.269C553.615 114.359 554.363 113.621 555.287 113.621L581.649 113.643C582.578 113.655 583.338 114.377 583.385 115.291L583.385 116.918 553.615 116.918ZM578.426 132.086C578.291 132.84 577.631 133.392 576.855 133.401L560.14 133.401C559.361 133.393 558.698 132.839 558.562 132.082L555.989 118.017 581.013 118.017Z" stroke="#F8C77F" stroke-width="0.552126" stroke-miterlimit="8" fill="#F8C77F" fill-rule="evenodd"/>
<path d="M534.932 232.074 533.011 221.371C532.703 219.702 531.228 218.491 529.512 218.5L504.279 220.586 504.148 220.596C504.02 220.607 503.855 220.62 503.837 220.622L503.334 220.669C498.337 221.247 494.76 225.721 495.345 230.662 495.525 232.182 496.093 233.631 496.996 234.873 497.212 235.211 497.664 235.311 498.005 235.097 498.347 234.883 498.448 234.436 498.232 234.099 498.216 234.074 498.199 234.05 498.181 234.028 495.716 230.637 496.498 225.913 499.927 223.476 500.98 222.728 502.208 222.257 503.496 222.107L509.593 221.6 509.593 232.148 508.332 229.915 507.986 229.289C507.095 227.783 505.472 226.85 503.709 226.829 500.993 226.826 498.789 229.001 498.786 231.687 498.785 232.96 499.288 234.182 500.188 235.092L501.62 236.498 496.026 236.498C494.078 236.498 492.5 238.059 492.5 239.984 492.5 241.909 494.078 243.47 496.026 243.47L509.994 243.47C511.941 243.468 513.518 241.908 513.52 239.984 513.525 239.301 513.321 238.632 512.935 238.064L512.032 236.467 527.731 231.871 528.181 234.374C528.306 235.078 528.648 235.725 529.16 236.23L535.449 242.448C536.809 243.827 539.042 243.854 540.436 242.509 541.831 241.163 541.858 238.956 540.497 237.577 540.477 237.557 540.457 237.537 540.436 237.517ZM509.897 242.023 496.107 242.023C495.103 242.041 494.224 241.359 494.003 240.391 493.778 239.285 494.502 238.208 495.621 237.985 495.754 237.959 495.889 237.945 496.026 237.945L504.996 237.945C505.036 237.945 505.069 237.912 505.069 237.872 505.069 237.853 505.061 237.835 505.047 237.821L501.231 234.078C499.899 232.727 499.926 230.564 501.292 229.247 501.938 228.623 502.806 228.275 503.709 228.276 504.947 228.304 506.083 228.96 506.717 230.012L510.788 237.264 511.694 238.832C512.027 239.31 512.138 239.906 511.999 240.47 511.741 241.403 510.875 242.043 509.897 242.023ZM539.402 241.425C538.585 242.196 537.3 242.196 536.484 241.425L530.194 235.203C529.895 234.908 529.695 234.529 529.622 234.118L529.34 232.553C529.34 232.532 529.346 232.514 529.34 232.495L528.609 228.154C528.554 227.758 528.186 227.48 527.785 227.534 527.385 227.587 527.104 227.952 527.159 228.348 527.161 228.362 527.163 228.377 527.166 228.391L527.508 230.423 511.301 235.172 511.059 234.742 511.059 221.475 528.599 220.012 529.555 219.94C530.547 219.948 531.392 220.654 531.567 221.619L533.571 232.77 539.402 238.535C540.208 239.332 540.208 240.623 539.402 241.42Z" stroke="#F8C77F" stroke-width="0.729134" stroke-miterlimit="8" fill="#F8C77F" fill-rule="evenodd"/>
<path d="M541.5 204.5C536.529 204.5 532.5 208.753 532.5 214 532.5 219.247 536.529 223.5 541.5 223.5 546.471 223.5 550.5 219.247 550.5 214 550.495 208.756 546.468 204.506 541.5 204.5ZM541.5 221.98C537.325 221.98 533.94 218.407 533.94 214 533.94 209.593 537.325 206.02 541.5 206.02 545.675 206.02 549.06 209.593 549.06 214 549.055 218.405 545.673 221.975 541.5 221.98Z" stroke="#F8C77F" stroke-width="0.729134" stroke-miterlimit="8" fill="#F8C77F" fill-rule="evenodd"/>
<path d="M587.095 233.835C587.936 231.749 588.126 229.463 587.64 227.27 588.352 227.064 589.014 226.847 589.577 226.625 591.542 225.871 592.516 223.686 591.753 221.744 590.99 219.803 588.779 218.84 586.815 219.594 586.813 219.595 586.811 219.595 586.809 219.596L586.743 219.622C586.137 219.838 585.524 220.031 584.904 220.203 584.637 220.277 584.366 220.334 584.095 220.383 586.016 218.723 587.124 216.329 587.14 213.807 587.14 213.594 587.121 213.385 587.105 213.176L587.363 213.041C589.884 211.815 590.922 208.801 589.681 206.309 588.44 203.817 585.391 202.792 582.87 204.018 582.196 204.346 581.604 204.817 581.136 205.398L581.12 205.429C578.775 204.532 576.177 204.532 573.832 205.429L573.816 205.399C572.066 203.226 568.865 202.867 566.667 204.597 564.469 206.327 564.106 209.491 565.856 211.663 566.323 212.244 566.915 212.715 567.588 213.042L567.843 213.175C567.827 213.385 567.809 213.594 567.809 213.808 567.824 216.329 568.932 218.723 570.851 220.383 570.583 220.332 570.317 220.277 570.054 220.204 569.434 220.032 568.82 219.839 568.213 219.623 566.25 218.867 564.038 219.827 563.272 221.767 562.517 223.683 563.453 225.843 565.376 226.625 565.936 226.847 566.603 227.064 567.313 227.27 566.82 229.482 567.017 231.791 567.88 233.889L565.047 235.49C562.784 236.73 561.872 239.485 562.954 241.808 564.12 244.182 567.011 245.172 569.413 244.019 569.51 243.973 569.606 243.923 569.7 243.87L575.94 240.345C576.957 240.52 577.997 240.52 579.014 240.345L585.11 243.786C585.883 244.223 586.758 244.452 587.648 244.452 590.299 244.48 592.471 242.379 592.5 239.759 592.519 238.025 591.579 236.419 590.05 235.571L587.073 233.891ZM586.077 209.697C585.591 208.81 584.96 208.008 584.208 207.324L584.23 207.311C584.914 206.829 585.864 206.986 586.352 207.662 586.785 208.261 586.715 209.081 586.188 209.601ZM585.111 204.518C586.034 204.515 586.93 204.826 587.648 205.398 589.402 206.78 589.69 209.306 588.291 211.039 587.931 211.486 587.479 211.851 586.964 212.111 586.861 211.613 586.713 211.125 586.522 210.653L586.878 210.342C587.886 209.379 587.914 207.791 586.94 206.794 586.072 205.906 584.679 205.774 583.656 206.484L583.372 206.653C582.965 206.354 582.536 206.088 582.087 205.856 582.855 205.003 583.955 204.516 585.11 204.517ZM566.668 211.049C565.267 209.314 565.551 206.786 567.304 205.398 568.985 204.066 571.427 204.264 572.864 205.851 572.415 206.083 571.985 206.35 571.578 206.649L571.314 206.492C570.29 205.778 568.891 205.904 568.015 206.79 567.04 207.787 567.067 209.376 568.075 210.339 568.081 210.344 568.086 210.35 568.091 210.355L568.427 210.647C568.236 211.119 568.088 211.607 567.984 212.105 567.476 211.848 567.027 211.488 566.668 211.049ZM568.782 209.618C568.178 209.045 568.158 208.097 568.737 207.501 569.024 207.206 569.42 207.039 569.833 207.04 570.158 207.041 570.475 207.14 570.741 207.325 569.99 208.008 569.359 208.81 568.872 209.697ZM568.825 213.807C568.825 209.371 572.705 205.761 577.474 205.761 582.243 205.761 586.122 209.371 586.122 213.807 586.122 218.243 582.243 221.853 577.474 221.853 572.705 221.853 568.825 218.243 568.825 213.807ZM568.812 233.483C568.033 231.58 567.857 229.488 568.307 227.485L568.391 227.108 568.666 226.126C568.744 225.859 568.589 225.58 568.319 225.503 568.049 225.426 567.767 225.58 567.689 225.847 567.688 225.85 567.687 225.853 567.686 225.857L567.563 226.292C566.839 226.081 566.23 225.878 565.754 225.688 564.319 225.121 563.622 223.511 564.196 222.093 564.771 220.675 566.399 219.985 567.834 220.553L567.851 220.56 567.868 220.566C568.495 220.789 569.14 220.991 569.778 221.169 570.666 221.41 571.581 221.539 572.502 221.552 575.583 223.291 579.365 223.291 582.446 221.552 583.37 221.539 584.288 221.411 585.178 221.169 585.819 220.992 586.461 220.789 587.087 220.566L587.107 220.559 587.127 220.551 587.178 220.531C588.619 219.978 590.239 220.685 590.798 222.109 591.357 223.533 590.642 225.136 589.201 225.688 588.707 225.882 588.102 226.084 587.405 226.286L587.284 225.856C587.209 225.588 586.928 225.431 586.658 225.506 586.387 225.58 586.228 225.857 586.303 226.125L586.498 226.817 586.647 227.484C587.099 229.497 586.919 231.598 586.131 233.508L586.001 233.823 585.599 234.72C585.479 234.971 585.588 235.271 585.842 235.39 586.096 235.508 586.399 235.401 586.519 235.15 586.523 235.142 586.526 235.135 586.529 235.128L586.668 234.816 589.544 236.441C591.37 237.445 592.026 239.722 591.01 241.526 590.333 242.729 589.041 243.467 587.648 243.446 586.935 243.446 586.233 243.263 585.613 242.913L580.416 239.977C580.723 239.854 581.015 239.699 581.289 239.516 581.526 239.366 581.595 239.055 581.444 238.821 581.293 238.587 580.978 238.518 580.741 238.668 580.733 238.673 580.726 238.678 580.718 238.684 580.222 239.011 579.658 239.226 579.068 239.312L578.84 239.352C577.938 239.507 577.016 239.507 576.114 239.352L575.984 239.33 575.903 239.317C575.312 239.229 574.749 239.013 574.252 238.684 574.024 238.521 573.706 238.572 573.542 238.798 573.378 239.023 573.429 239.337 573.657 239.5 573.665 239.505 573.673 239.51 573.681 239.516 573.952 239.697 574.242 239.851 574.546 239.973L569.195 242.994C567.366 244.028 565.035 243.4 563.989 241.592 563.946 241.518 563.906 241.443 563.869 241.367 563.014 239.521 563.749 237.335 565.552 236.363L568.299 234.812 568.442 235.131C568.523 235.312 568.705 235.43 568.907 235.43 568.977 235.43 569.046 235.415 569.11 235.387 569.367 235.274 569.483 234.977 569.369 234.723Z" stroke="#F8C77F" stroke-width="0.500052" stroke-miterlimit="8" fill="#F8C77F" fill-rule="evenodd"/>
<path d="M574.5 212.5C574.5 213.052 574.052 213.5 573.5 213.5 572.948 213.5 572.5 213.052 572.5 212.5 572.5 211.948 572.948 211.5 573.5 211.5 574.052 211.5 574.5 211.948 574.5 212.5Z" stroke="#F8C77F" stroke-width="0.500052" stroke-miterlimit="8" fill="#F8C77F" fill-rule="evenodd"/>
<path d="M577.5 220.5C579.706 220.5 581.5 218.93 581.5 217 581.5 215.07 579.706 213.5 577.5 213.5 575.294 213.5 573.5 215.071 573.5 217 573.5 218.93 575.294 220.5 577.5 220.5ZM577.5 214.5C579.133 214.5 580.462 215.622 580.462 217 580.462 218.379 579.133 219.5 577.5 219.5 575.867 219.5 574.538 218.379 574.538 217 574.538 215.622 575.867 214.5 577.5 214.5Z" stroke="#F8C77F" stroke-width="0.500052" stroke-miterlimit="8" fill="#F8C77F" fill-rule="evenodd"/>
<path d="M582.5 212.5C582.5 213.052 582.052 213.5 581.5 213.5 580.948 213.5 580.5 213.052 580.5 212.5 580.5 211.948 580.948 211.5 581.5 211.5 582.052 211.5 582.5 211.948 582.5 212.5Z" stroke="#F8C77F" stroke-width="0.500052" stroke-miterlimit="8" fill="#F8C77F" fill-rule="evenodd"/>
<path d="M577.132 217.499C577.957 217.451 578.567 216.964 578.494 216.413 578.421 215.863 577.693 215.455 576.868 215.504 576.094 215.55 575.5 215.983 575.5 216.502 575.541 217.077 576.27 217.523 577.132 217.499Z" stroke="#F8C77F" stroke-width="0.500052" stroke-miterlimit="8" fill="#F8C77F" fill-rule="evenodd"/>
<path d="M592.896 303.505C592.837 303.431 592.773 303.361 592.706 303.294 591.645 302.235 589.927 302.235 588.865 303.294 588.797 303.361 588.733 303.431 588.673 303.505L584.366 308.83 583.455 307.918C582.603 307.067 581.222 307.067 580.371 307.918L554.921 333.367C554.07 334.219 554.069 335.6 554.921 336.452 554.921 336.452 554.921 336.452 554.921 336.452L555.832 337.363 550.505 341.676C549.341 342.62 549.162 344.328 550.104 345.493 550.164 345.567 550.227 345.637 550.294 345.704 551.354 346.765 553.073 346.765 554.134 345.706 554.134 345.705 554.135 345.705 554.135 345.704 554.202 345.637 554.266 345.567 554.325 345.493L558.637 340.167 559.548 341.078C560.4 341.93 561.78 341.93 562.632 341.078L588.077 315.63C588.927 314.778 588.927 313.399 588.077 312.546L587.167 311.635 592.495 307.322C593.659 306.379 593.838 304.67 592.896 303.505ZM553.479 344.807C553.443 344.851 553.404 344.894 553.364 344.935 552.721 345.551 551.706 345.551 551.063 344.935 551.024 344.895 550.988 344.854 550.954 344.81 550.389 344.113 550.497 343.09 551.194 342.525L556.609 338.14 557.864 339.394ZM587.306 313.317C587.732 313.743 587.732 314.434 587.306 314.859L561.861 340.309C561.435 340.735 560.745 340.735 560.319 340.309L558.552 338.54 558.552 338.54 557.461 337.449 557.461 337.449 555.693 335.682C555.267 335.256 555.267 334.566 555.693 334.14 555.693 334.14 555.693 334.14 555.693 334.14L581.141 308.69C581.566 308.265 582.257 308.265 582.683 308.69L584.45 310.459 584.45 310.459 585.907 311.916ZM592.402 305.382C592.357 305.81 592.144 306.202 591.809 306.472L586.393 310.856 585.138 309.602 589.523 304.186C590.085 303.488 591.106 303.379 591.803 303.941 591.849 303.978 591.893 304.017 591.935 304.059 591.975 304.099 592.012 304.141 592.048 304.186 592.321 304.521 592.449 304.952 592.402 305.382Z" stroke="#F8C77F" stroke-width="0.541627" stroke-miterlimit="8" fill="#F8C77F" fill-rule="evenodd"/>
<path d="M563.484 287.489C562.723 287.49 561.973 287.663 561.288 287.994 560.632 285.907 558.694 284.491 556.507 284.5 556.354 284.5 556.198 284.508 556.045 284.521 554.037 284.705 552.333 286.073 551.719 287.994 549.226 286.781 546.22 287.819 545.007 290.313 543.794 292.808 544.832 295.814 547.326 297.027 547.696 297.208 548.087 297.342 548.49 297.426L548.49 308.5 564.514 308.5 564.514 297.426C567.227 296.853 568.963 294.19 568.391 291.476 567.902 289.154 565.856 287.492 563.484 287.489ZM563.808 307.794 549.196 307.794 549.196 304.971 563.808 304.971ZM563.808 296.833C563.514 296.854 563.219 296.86 562.924 296.85 562.73 296.846 562.568 296.996 562.558 297.189 562.551 297.384 562.703 297.548 562.897 297.555 562.93 297.555 563.063 297.561 563.24 297.561 563.407 297.561 563.611 297.556 563.808 297.541L563.808 304.265 549.196 304.265 549.196 297.541C549.393 297.556 549.597 297.561 549.764 297.561 549.94 297.561 550.074 297.557 550.107 297.555 550.302 297.548 550.454 297.384 550.446 297.189 550.439 296.994 550.275 296.842 550.08 296.849 549.786 296.859 549.492 296.854 549.198 296.833 546.817 296.653 545.032 294.577 545.212 292.195 545.391 289.813 547.468 288.028 549.849 288.208 550.709 288.272 551.53 288.593 552.207 289.129 552.396 287.057 554.037 285.415 556.109 285.224 556.243 285.212 556.376 285.206 556.507 285.206 558.736 285.209 560.597 286.909 560.8 289.13 561.562 288.524 562.508 288.195 563.481 288.195L563.485 288.195C565.873 288.204 567.803 290.147 567.794 292.536 567.786 294.788 566.053 296.656 563.81 296.833Z" stroke="#F8C77F" stroke-width="0.354121" stroke-miterlimit="8" fill="#F8C77F" fill-rule="evenodd"/>
<path d="M275.5 303.5 275.5 354.5 317.5 354.5 317.5 303.5ZM316.188 304.775 316.188 314.338 276.813 314.338 276.813 304.775ZM276.813 353.225 276.813 315.613 316.188 315.613 316.188 353.225Z" stroke="#F8C77F" stroke-width="0.635381" stroke-miterlimit="8" fill="#F8C77F" fill-rule="evenodd"/>
<path d="M296.5 321.5C289.32 321.5 283.5 327.32 283.5 334.5 283.5 341.68 289.32 347.5 296.5 347.5 303.68 347.5 309.5 341.68 309.5 334.5 309.492 327.324 303.676 321.508 296.5 321.5ZM296.5 346.2C290.038 346.2 284.8 340.962 284.8 334.5 284.8 328.038 290.038 322.8 296.5 322.8 302.962 322.8 308.2 328.038 308.2 334.5 308.193 340.959 302.959 346.193 296.5 346.2Z" stroke="#F8C77F" stroke-width="0.635381" stroke-miterlimit="8" fill="#F8C77F" fill-rule="evenodd"/>
<path d="M296.5 325.5C291.53 325.5 287.5 329.53 287.5 334.5 287.5 339.471 291.53 343.5 296.5 343.5 301.471 343.5 305.5 339.471 305.5 334.5 305.495 329.532 301.469 325.505 296.5 325.5ZM296.5 342.214C292.902 342.208 289.785 339.719 288.984 336.212 289.261 336.291 289.548 336.328 289.836 336.322 290.632 336.293 291.379 335.929 291.893 335.321 292.504 334.652 293.541 334.605 294.21 335.216 294.246 335.25 294.281 335.284 294.314 335.321 295.344 336.528 297.157 336.672 298.365 335.642 298.48 335.544 298.587 335.436 298.686 335.321 298.989 334.966 299.432 334.761 299.9 334.761L299.907 334.761C300.372 334.762 300.812 334.967 301.112 335.321 301.816 336.172 302.96 336.522 304.02 336.211 303.218 339.72 300.099 342.21 296.5 342.214ZM304.202 334.742C303.538 335.219 302.618 335.107 302.087 334.485 301.544 333.845 300.747 333.476 299.907 333.475L299.901 333.475C299.058 333.475 298.258 333.844 297.711 334.485 297.1 335.154 296.063 335.201 295.395 334.59 295.358 334.557 295.323 334.522 295.29 334.485 294.744 333.845 293.945 333.476 293.104 333.475L293.104 333.475C292.263 333.476 291.464 333.845 290.918 334.485 290.635 334.82 290.224 335.02 289.786 335.037 289.434 335.051 289.087 334.947 288.801 334.741 288.801 334.66 288.789 334.581 288.789 334.5 288.789 330.24 292.243 326.786 296.503 326.786 300.764 326.786 304.218 330.24 304.218 334.5 304.214 334.582 304.205 334.661 304.202 334.742Z" stroke="#F8C77F" stroke-width="0.635381" stroke-miterlimit="8" fill="#F8C77F" fill-rule="evenodd"/>
<path d="M297 311.5C298.381 311.5 299.5 310.605 299.5 309.5 299.5 308.395 298.381 307.5 297 307.5 295.619 307.5 294.5 308.395 294.5 309.5 294.5 310.605 295.619 311.5 297 311.5ZM297 308.643C297.592 308.643 298.071 309.027 298.071 309.5 298.071 309.973 297.592 310.357 297 310.357 296.408 310.357 295.929 309.973 295.929 309.5 295.929 309.027 296.408 308.643 297 308.643Z" stroke="#F8C77F" stroke-width="0.635381" stroke-miterlimit="8" fill="#F8C77F" fill-rule="evenodd"/>
<path d="M303 311.5C304.381 311.5 305.5 310.605 305.5 309.5 305.5 308.395 304.381 307.5 303 307.5 301.619 307.5 300.5 308.395 300.5 309.5 300.5 310.605 301.619 311.5 303 311.5ZM303 308.643C303.592 308.643 304.071 309.027 304.071 309.5 304.071 309.973 303.592 310.357 303 310.357 302.408 310.357 301.929 309.973 301.929 309.5 301.929 309.027 302.408 308.643 303 308.643Z" stroke="#F8C77F" stroke-width="0.635381" stroke-miterlimit="8" fill="#F8C77F" fill-rule="evenodd"/>
<path d="M309.5 311.5C310.605 311.5 311.5 310.605 311.5 309.5 311.5 308.395 310.605 307.5 309.5 307.5 308.395 307.5 307.5 308.395 307.5 309.5 307.5 310.605 308.395 311.5 309.5 311.5ZM309.5 308.643C309.973 308.643 310.357 309.027 310.357 309.5 310.357 309.973 309.973 310.357 309.5 310.357 309.027 310.357 308.643 309.973 308.643 309.5 308.643 309.027 309.027 308.643 309.5 308.643Z" stroke="#F8C77F" stroke-width="0.635381" stroke-miterlimit="8" fill="#F8C77F" fill-rule="evenodd"/>
<path d="M290.5 307.5 280.5 307.5 280.5 311.5 290.5 311.5ZM289.072 310.357 281.929 310.357 281.929 308.643 289.072 308.643Z" stroke="#F8C77F" stroke-width="0.635381" stroke-miterlimit="8" fill="#F8C77F" fill-rule="evenodd"/>
<path d="M245.92 323.799C246.336 323.044 246.671 322.244 246.918 321.413L249.5 320.067 249.5 317.008 246.918 315.662C246.702 314.829 246.387 314.027 245.979 313.276L246.918 310.401 244.805 308.199 242.047 309.177C241.327 308.75 240.558 308.419 239.758 308.192L238.467 305.5 235.533 305.5 234.242 308.192C233.443 308.417 232.674 308.746 231.953 309.171L229.195 308.192 227.082 310.394 228.021 313.269C227.613 314.021 227.298 314.822 227.082 315.655L224.5 317.001 224.5 320.06 227.082 321.406C227.298 322.239 227.614 323.041 228.021 323.792L227.082 326.667 229.136 328.808 231.894 327.829C232.615 328.254 233.384 328.583 234.183 328.808L235.474 331.5 238.409 331.5 239.7 328.808C240.499 328.583 241.268 328.254 241.988 327.829L244.747 328.808 246.859 326.667ZM244.809 324.193 245.509 326.337 244.444 327.417 242.367 326.679 241.86 326.499 241.397 326.78C240.761 327.155 240.083 327.444 239.377 327.64L238.881 327.788 238.65 328.269 237.683 330.288 236.201 330.288 235.235 328.269 235.004 327.788 234.507 327.64C233.802 327.444 233.123 327.155 232.487 326.78L232.025 326.499 231.518 326.679 229.451 327.413 228.43 326.348 229.134 324.193 229.306 323.665 229.036 323.182C228.678 322.52 228.402 321.812 228.215 321.076L228.073 320.559 227.612 320.318 225.674 319.309 225.674 317.762 227.61 316.757 228.072 316.516 228.214 315.998C228.401 315.263 228.677 314.555 229.035 313.892L229.305 313.41 229.133 312.882 228.428 310.726 229.508 309.6 231.575 310.334 232.082 310.518 232.545 310.236C233.181 309.862 233.859 309.575 234.565 309.379L235.063 309.223 235.295 308.741 236.261 306.722 237.745 306.722 238.711 308.741 238.943 309.223 239.438 309.371C240.144 309.566 240.823 309.854 241.458 310.227L241.921 310.509 242.429 310.326 244.495 309.592 245.575 310.717 244.87 312.873 244.698 313.401 244.968 313.884C245.327 314.546 245.604 315.254 245.792 315.989L245.934 316.507 246.396 316.748 248.332 317.756 248.332 319.303 246.396 320.311 245.947 320.546 245.799 321.046C245.578 321.789 245.28 322.505 244.909 323.18L244.639 323.662Z" stroke="#F8C77F" stroke-width="0.583307" stroke-miterlimit="8" fill="#F8C77F" fill-rule="evenodd"/>
<path d="M211.5 338.5 211.5 341.441 214.082 342.735C214.298 343.536 214.613 344.307 215.021 345.03L214.141 347.794 216.195 349.853 218.953 348.971C219.674 349.379 220.443 349.696 221.242 349.912L222.533 352.5 225.467 352.5 226.758 349.912C227.558 349.695 228.327 349.379 229.047 348.971L231.805 349.912 233.859 347.794 232.979 345.088C233.387 344.366 233.702 343.595 233.918 342.794L236.5 341.5 236.5 338.559 233.918 337.265C233.702 336.464 233.387 335.693 232.979 334.971L233.918 332.206 231.805 330.088 229.047 331.03C228.322 330.631 227.554 330.315 226.758 330.088L225.467 327.5 222.533 327.5 221.242 330.088C220.443 330.305 219.674 330.621 218.953 331.03L216.195 330.088 214.141 332.147 215.021 334.912C214.624 335.639 214.309 336.408 214.082 337.206ZM215.056 338.029 215.204 337.548C215.406 336.838 215.685 336.151 216.035 335.501L216.298 335.048 216.139 334.55 215.477 332.467 216.508 331.432 218.575 332.138 219.082 332.312 219.545 332.041C220.18 331.681 220.859 331.403 221.565 331.215L222.063 331.078 222.295 330.615 223.261 328.674 224.745 328.674 225.711 330.615 225.936 331.065 226.416 331.213C227.125 331.416 227.81 331.695 228.458 332.047L228.921 332.317 229.429 332.144 231.495 331.438 232.575 332.521 231.87 334.593 231.698 335.101 231.968 335.565C232.327 336.202 232.604 336.883 232.792 337.59L232.934 338.087 233.396 338.319 235.326 339.286 235.326 340.774 233.39 341.743 232.928 341.975 232.786 342.472C232.598 343.179 232.321 343.86 231.962 344.497L231.697 344.953 231.86 345.455 232.521 347.486 231.483 348.561 229.429 347.859 228.921 347.687 228.458 347.957C227.822 348.318 227.143 348.595 226.437 348.784L225.94 348.926 225.71 349.389 224.743 351.33 223.259 351.33 222.293 349.389 222.062 348.926 221.565 348.784C220.86 348.595 220.181 348.317 219.545 347.957L219.095 347.694 218.597 347.852 216.52 348.517 215.477 347.472 216.14 345.389 216.299 344.891 216.036 344.438C215.677 343.801 215.4 343.121 215.211 342.414L215.069 341.916 214.608 341.684 212.671 340.715 212.671 339.227 214.608 338.258Z" stroke="#F8C77F" stroke-width="0.583307" stroke-miterlimit="8" fill="#F8C77F" fill-rule="evenodd"/>
<path d="M237 314.5C234.515 314.5 232.5 316.291 232.5 318.5 232.5 320.709 234.515 322.5 237 322.5 239.485 322.5 241.5 320.709 241.5 318.5 241.482 316.298 239.478 314.517 237 314.5ZM237 321.433C235.179 321.431 233.703 320.119 233.7 318.5 233.724 316.889 235.188 315.588 237 315.567 238.821 315.569 240.297 316.881 240.3 318.5 240.277 320.112 238.813 321.414 237 321.436Z" stroke="#F8C77F" stroke-width="0.583307" stroke-miterlimit="8" fill="#F8C77F" fill-rule="evenodd"/>
<path d="M224 344.5C226.485 344.5 228.5 342.485 228.5 340 228.5 337.515 226.485 335.5 224 335.5 221.515 335.5 219.5 337.515 219.5 340 219.497 342.482 221.507 344.497 223.989 344.5 223.993 344.5 223.996 344.5 224 344.5ZM224 336.697C225.823 336.697 227.3 338.174 227.3 339.997 227.3 341.82 225.823 343.297 224 343.297 222.178 343.297 220.7 341.82 220.7 339.997 220.703 338.176 222.179 336.7 224 336.697Z" stroke="#F8C77F" stroke-width="0.583307" stroke-miterlimit="8" fill="#F8C77F" fill-rule="evenodd"/></g></svg>